<svg width="48" height="48" viewBox="0 0 48 48" fill="none" xmlns="http://www.w3.org/2000/svg">
<rect width="48" height="48" rx="24" fill="#2C27E1"/>
<path d="M12.8158 12.8274H21.7782V35.4667H12.8158V12.8274ZM24.5436 18.9912C24.5436 16.5368 25.1655 14.8876 26.4094 14.0435C27.5866 13.255 29.8022 12.8607 33.0562 12.8607H34.7387V16.0092C34.7387 18.5192 34.1002 20.3072 32.823 21.3734C31.5236 22.4395 29.2858 22.9726 26.1095 22.9726H24.5436V18.9912ZM24.5436 24.7051H26.1095C29.2413 24.7051 31.4792 25.327 32.823 26.5709C34.1002 27.7592 34.7387 29.6361 34.7387 32.2016V35.5H33.0562C29.8688 35.5 27.6532 35.0224 26.4094 34.0673C25.1655 33.1011 24.5436 31.3686 24.5436 28.8698V24.7051Z" fill="white"/>
</svg>
