<svg width="216" height="48" viewBox="0 0 216 48" fill="none" xmlns="http://www.w3.org/2000/svg">
<rect width="48" height="48" rx="24" fill="white" fill-opacity="0.08"/>
<path d="M34 24C34 18.48 29.52 14 24 14C18.48 14 14 18.48 14 24C14 28.84 17.44 32.87 22 33.8V27H20V24H22V21.5C22 19.57 23.57 18 25.5 18H28V21H26C25.45 21 25 21.45 25 22V24H28V27H25V33.95C30.05 33.45 34 29.19 34 24Z" fill="white"/>
<rect x="56" width="48" height="48" rx="24" fill="white" fill-opacity="0.08"/>
<path d="M75.8 14H84.2C87.4 14 90 16.6 90 19.8V28.2C90 29.7383 89.3889 31.2135 88.3012 32.3012C87.2135 33.3889 85.7383 34 84.2 34H75.8C72.6 34 70 31.4 70 28.2V19.8C70 18.2617 70.6111 16.7865 71.6988 15.6988C72.7865 14.6111 74.2617 14 75.8 14ZM75.6 16C74.6452 16 73.7295 16.3793 73.0544 17.0544C72.3793 17.7295 72 18.6452 72 19.6V28.4C72 30.39 73.61 32 75.6 32H84.4C85.3548 32 86.2705 31.6207 86.9456 30.9456C87.6207 30.2705 88 29.3548 88 28.4V19.6C88 17.61 86.39 16 84.4 16H75.6ZM85.25 17.5C85.5815 17.5 85.8995 17.6317 86.1339 17.8661C86.3683 18.1005 86.5 18.4185 86.5 18.75C86.5 19.0815 86.3683 19.3995 86.1339 19.6339C85.8995 19.8683 85.5815 20 85.25 20C84.9185 20 84.6005 19.8683 84.3661 19.6339C84.1317 19.3995 84 19.0815 84 18.75C84 18.4185 84.1317 18.1005 84.3661 17.8661C84.6005 17.6317 84.9185 17.5 85.25 17.5ZM80 19C81.3261 19 82.5979 19.5268 83.5355 20.4645C84.4732 21.4021 85 22.6739 85 24C85 25.3261 84.4732 26.5979 83.5355 27.5355C82.5979 28.4732 81.3261 29 80 29C78.6739 29 77.4021 28.4732 76.4645 27.5355C75.5268 26.5979 75 25.3261 75 24C75 22.6739 75.5268 21.4021 76.4645 20.4645C77.4021 19.5268 78.6739 19 80 19ZM80 21C79.2044 21 78.4413 21.3161 77.8787 21.8787C77.3161 22.4413 77 23.2044 77 24C77 24.7956 77.3161 25.5587 77.8787 26.1213C78.4413 26.6839 79.2044 27 80 27C80.7956 27 81.5587 26.6839 82.1213 26.1213C82.6839 25.5587 83 24.7956 83 24C83 23.2044 82.6839 22.4413 82.1213 21.8787C81.5587 21.3161 80.7956 21 80 21Z" fill="white"/>
<rect x="112" width="48" height="48" rx="24" fill="white" fill-opacity="0.08"/>
<mask id="mask0_252_980" style="mask-type:luminance" maskUnits="userSpaceOnUse" x="126" y="14" width="20" height="20">
<path d="M126 14H146V34H126V14Z" fill="white"/>
</mask>
<g mask="url(#mask0_252_980)">
<path d="M141.75 14.937H144.817L138.117 22.6142L146 33.0627H139.829L134.991 26.727L129.463 33.0627H126.393L133.559 24.8484L126 14.9384H132.329L136.694 20.7284L141.75 14.937ZM140.671 31.2227H142.371L131.4 16.6813H129.577L140.671 31.2227Z" fill="white"/>
</g>
<rect x="168" width="48" height="48" rx="24" fill="white" fill-opacity="0.08"/>
<path d="M199 15C199.53 15 200.039 15.2107 200.414 15.5858C200.789 15.9609 201 16.4696 201 17V31C201 31.5304 200.789 32.0391 200.414 32.4142C200.039 32.7893 199.53 33 199 33H185C184.47 33 183.961 32.7893 183.586 32.4142C183.211 32.0391 183 31.5304 183 31V17C183 16.4696 183.211 15.9609 183.586 15.5858C183.961 15.2107 184.47 15 185 15H199ZM198.5 30.5V25.2C198.5 24.3354 198.157 23.5062 197.545 22.8948C196.934 22.2835 196.105 21.94 195.24 21.94C194.39 21.94 193.4 22.46 192.92 23.24V22.13H190.13V30.5H192.92V25.57C192.92 24.8 193.54 24.17 194.31 24.17C194.681 24.17 195.037 24.3175 195.3 24.5801C195.563 24.8426 195.71 25.1987 195.71 25.57V30.5H198.5ZM186.88 20.56C187.326 20.56 187.753 20.383 188.068 20.0679C188.383 19.7529 188.56 19.3256 188.56 18.88C188.56 17.95 187.81 17.19 186.88 17.19C186.432 17.19 186.002 17.3681 185.685 17.685C185.368 18.0019 185.19 18.4318 185.19 18.88C185.19 19.81 185.95 20.56 186.88 20.56ZM188.27 30.5V22.13H185.5V30.5H188.27Z" fill="white"/>
</svg>
