<svg width="374" height="224" viewBox="0 0 374 224" fill="none" xmlns="http://www.w3.org/2000/svg">
<g filter="url(#filter0_d_280_58)">
<rect x="80" y="60" width="244" height="64" rx="32" fill="white" shape-rendering="crispEdges"/>
<rect x="80.5" y="60.5" width="243" height="63" rx="31.5" stroke="#F5F5F5" shape-rendering="crispEdges"/>
<rect x="88" y="68" width="48" height="48" rx="24" fill="#BEBDF6"/>
<path d="M122.5 98.75H121.75V93.5C121.75 93.1022 121.592 92.7206 121.311 92.4393C121.029 92.158 120.648 92 120.25 92H116.5V85.25C116.5 84.8522 116.342 84.4706 116.061 84.1893C115.779 83.908 115.398 83.75 115 83.75H109C108.602 83.75 108.221 83.908 107.939 84.1893C107.658 84.4706 107.5 84.8522 107.5 85.25V88.25H103.75C103.352 88.25 102.971 88.408 102.689 88.6893C102.408 88.9706 102.25 89.3522 102.25 89.75V98.75H101.5C101.301 98.75 101.11 98.829 100.97 98.9697C100.829 99.1103 100.75 99.3011 100.75 99.5C100.75 99.6989 100.829 99.8897 100.97 100.03C101.11 100.171 101.301 100.25 101.5 100.25H122.5C122.699 100.25 122.89 100.171 123.03 100.03C123.171 99.8897 123.25 99.6989 123.25 99.5C123.25 99.3011 123.171 99.1103 123.03 98.9697C122.89 98.829 122.699 98.75 122.5 98.75ZM107.5 98.75H103.75V89.75H107.5V98.75ZM113.125 92.75C113.125 92.9489 113.046 93.1397 112.905 93.2803C112.765 93.421 112.574 93.5 112.375 93.5C112.176 93.5 111.985 93.421 111.845 93.2803C111.704 93.1397 111.625 92.9489 111.625 92.75V90.0406L111.487 90.0866C111.394 90.1177 111.295 90.1301 111.197 90.1232C111.099 90.1162 111.003 90.0899 110.915 90.0459C110.826 90.0018 110.748 89.9408 110.683 89.8664C110.619 89.792 110.57 89.7056 110.538 89.6122C110.507 89.5187 110.495 89.4201 110.502 89.3218C110.509 89.2236 110.535 89.1277 110.579 89.0396C110.623 88.9515 110.684 88.8729 110.759 88.8084C110.833 88.7438 110.919 88.6946 111.013 88.6634L112.138 88.2884C112.251 88.2509 112.371 88.2406 112.488 88.2585C112.606 88.2764 112.717 88.322 112.814 88.3915C112.91 88.461 112.988 88.5524 113.043 88.6582C113.097 88.764 113.125 88.8812 113.125 89V92.75ZM120.25 98.75H116.5V93.5H120.25V98.75Z" fill="#FFEEEE"/>
<path d="M155.722 86L152.95 81.104H151.762V86H149.242V73.436H153.958C154.93 73.436 155.758 73.61 156.442 73.958C157.126 74.294 157.636 74.756 157.972 75.344C158.32 75.92 158.494 76.568 158.494 77.288C158.494 78.116 158.254 78.866 157.774 79.538C157.294 80.198 156.58 80.654 155.632 80.906L158.638 86H155.722ZM151.762 79.214H153.868C154.552 79.214 155.062 79.052 155.398 78.728C155.734 78.392 155.902 77.93 155.902 77.342C155.902 76.766 155.734 76.322 155.398 76.01C155.062 75.686 154.552 75.524 153.868 75.524H151.762V79.214ZM159.945 80.978C159.945 79.97 160.143 79.076 160.539 78.296C160.947 77.516 161.493 76.916 162.177 76.496C162.873 76.076 163.647 75.866 164.499 75.866C165.243 75.866 165.891 76.016 166.443 76.316C167.007 76.616 167.457 76.994 167.793 77.45V76.028H170.331V86H167.793V84.542C167.469 85.01 167.019 85.4 166.443 85.712C165.879 86.012 165.225 86.162 164.481 86.162C163.641 86.162 162.873 85.946 162.177 85.514C161.493 85.082 160.947 84.476 160.539 83.696C160.143 82.904 159.945 81.998 159.945 80.978ZM167.793 81.014C167.793 80.402 167.673 79.88 167.433 79.448C167.193 79.004 166.869 78.668 166.461 78.44C166.053 78.2 165.615 78.08 165.147 78.08C164.679 78.08 164.247 78.194 163.851 78.422C163.455 78.65 163.131 78.986 162.879 79.43C162.639 79.862 162.519 80.378 162.519 80.978C162.519 81.578 162.639 82.106 162.879 82.562C163.131 83.006 163.455 83.348 163.851 83.588C164.259 83.828 164.691 83.948 165.147 83.948C165.615 83.948 166.053 83.834 166.461 83.606C166.869 83.366 167.193 83.03 167.433 82.598C167.673 82.154 167.793 81.626 167.793 81.014ZM178.138 75.884C179.326 75.884 180.286 76.262 181.018 77.018C181.75 77.762 182.116 78.806 182.116 80.15V86H179.596V80.492C179.596 79.7 179.398 79.094 179.002 78.674C178.606 78.242 178.066 78.026 177.382 78.026C176.686 78.026 176.134 78.242 175.726 78.674C175.33 79.094 175.132 79.7 175.132 80.492V86H172.612V76.028H175.132V77.27C175.468 76.838 175.894 76.502 176.41 76.262C176.938 76.01 177.514 75.884 178.138 75.884ZM190.237 86L186.853 81.752V86H184.333V72.68H186.853V80.258L190.201 76.028H193.477L189.085 81.032L193.513 86H190.237ZM195.943 74.84C195.499 74.84 195.127 74.702 194.827 74.426C194.539 74.138 194.395 73.784 194.395 73.364C194.395 72.944 194.539 72.596 194.827 72.32C195.127 72.032 195.499 71.888 195.943 71.888C196.387 71.888 196.753 72.032 197.041 72.32C197.341 72.596 197.491 72.944 197.491 73.364C197.491 73.784 197.341 74.138 197.041 74.426C196.753 74.702 196.387 74.84 195.943 74.84ZM197.185 76.028V86H194.665V76.028H197.185ZM205.02 75.884C206.208 75.884 207.168 76.262 207.9 77.018C208.632 77.762 208.998 78.806 208.998 80.15V86H206.478V80.492C206.478 79.7 206.28 79.094 205.884 78.674C205.488 78.242 204.948 78.026 204.264 78.026C203.568 78.026 203.016 78.242 202.608 78.674C202.212 79.094 202.014 79.7 202.014 80.492V86H199.494V76.028H202.014V77.27C202.35 76.838 202.776 76.502 203.292 76.262C203.82 76.01 204.396 75.884 205.02 75.884ZM215.121 75.866C215.865 75.866 216.519 76.016 217.083 76.316C217.647 76.604 218.091 76.982 218.415 77.45V76.028H220.953V86.072C220.953 86.996 220.767 87.818 220.395 88.538C220.023 89.27 219.465 89.846 218.721 90.266C217.977 90.698 217.077 90.914 216.021 90.914C214.605 90.914 213.441 90.584 212.529 89.924C211.629 89.264 211.119 88.364 210.999 87.224H213.501C213.633 87.68 213.915 88.04 214.347 88.304C214.791 88.58 215.325 88.718 215.949 88.718C216.681 88.718 217.275 88.496 217.731 88.052C218.187 87.62 218.415 86.96 218.415 86.072V84.524C218.091 84.992 217.641 85.382 217.065 85.694C216.501 86.006 215.853 86.162 215.121 86.162C214.281 86.162 213.513 85.946 212.817 85.514C212.121 85.082 211.569 84.476 211.161 83.696C210.765 82.904 210.567 81.998 210.567 80.978C210.567 79.97 210.765 79.076 211.161 78.296C211.569 77.516 212.115 76.916 212.799 76.496C213.495 76.076 214.269 75.866 215.121 75.866ZM218.415 81.014C218.415 80.402 218.295 79.88 218.055 79.448C217.815 79.004 217.491 78.668 217.083 78.44C216.675 78.2 216.237 78.08 215.769 78.08C215.301 78.08 214.869 78.194 214.473 78.422C214.077 78.65 213.753 78.986 213.501 79.43C213.261 79.862 213.141 80.378 213.141 80.978C213.141 81.578 213.261 82.106 213.501 82.562C213.753 83.006 214.077 83.348 214.473 83.588C214.881 83.828 215.313 83.948 215.769 83.948C216.237 83.948 216.675 83.834 217.083 83.606C217.491 83.366 217.815 83.03 218.055 82.598C218.295 82.154 218.415 81.626 218.415 81.014Z" fill="#1F1F1F"/>
<path d="M152.256 111.098C151.603 111.098 151.015 110.986 150.492 110.762C149.969 110.529 149.559 110.202 149.26 109.782C148.961 109.362 148.812 108.872 148.812 108.312H150.52C150.557 108.732 150.721 109.077 151.01 109.348C151.309 109.619 151.724 109.754 152.256 109.754C152.807 109.754 153.236 109.623 153.544 109.362C153.852 109.091 154.006 108.746 154.006 108.326C154.006 107.999 153.908 107.733 153.712 107.528C153.525 107.323 153.287 107.164 152.998 107.052C152.718 106.94 152.326 106.819 151.822 106.688C151.187 106.52 150.669 106.352 150.268 106.184C149.876 106.007 149.54 105.736 149.26 105.372C148.98 105.008 148.84 104.523 148.84 103.916C148.84 103.356 148.98 102.866 149.26 102.446C149.54 102.026 149.932 101.704 150.436 101.48C150.94 101.256 151.523 101.144 152.186 101.144C153.129 101.144 153.899 101.382 154.496 101.858C155.103 102.325 155.439 102.969 155.504 103.79H153.74C153.712 103.435 153.544 103.132 153.236 102.88C152.928 102.628 152.522 102.502 152.018 102.502C151.561 102.502 151.187 102.619 150.898 102.852C150.609 103.085 150.464 103.421 150.464 103.86C150.464 104.159 150.553 104.406 150.73 104.602C150.917 104.789 151.15 104.938 151.43 105.05C151.71 105.162 152.093 105.283 152.578 105.414C153.222 105.591 153.745 105.769 154.146 105.946C154.557 106.123 154.902 106.399 155.182 106.772C155.471 107.136 155.616 107.626 155.616 108.242C155.616 108.737 155.481 109.203 155.21 109.642C154.949 110.081 154.561 110.435 154.048 110.706C153.544 110.967 152.947 111.098 152.256 111.098ZM164.429 106.954C164.429 107.243 164.411 107.505 164.373 107.738H158.479C158.526 108.354 158.755 108.849 159.165 109.222C159.576 109.595 160.08 109.782 160.677 109.782C161.536 109.782 162.143 109.423 162.497 108.704H164.219C163.986 109.413 163.561 109.997 162.945 110.454C162.339 110.902 161.583 111.126 160.677 111.126C159.94 111.126 159.277 110.963 158.689 110.636C158.111 110.3 157.653 109.833 157.317 109.236C156.991 108.629 156.827 107.929 156.827 107.136C156.827 106.343 156.986 105.647 157.303 105.05C157.63 104.443 158.083 103.977 158.661 103.65C159.249 103.323 159.921 103.16 160.677 103.16C161.405 103.16 162.054 103.319 162.623 103.636C163.193 103.953 163.636 104.401 163.953 104.98C164.271 105.549 164.429 106.207 164.429 106.954ZM162.763 106.45C162.754 105.862 162.544 105.391 162.133 105.036C161.723 104.681 161.214 104.504 160.607 104.504C160.057 104.504 159.585 104.681 159.193 105.036C158.801 105.381 158.568 105.853 158.493 106.45H162.763ZM167.456 100.64V111H165.86V100.64H167.456ZM176.397 103.286V111H174.801V110.09C174.549 110.407 174.218 110.659 173.807 110.846C173.406 111.023 172.977 111.112 172.519 111.112C171.913 111.112 171.367 110.986 170.881 110.734C170.405 110.482 170.027 110.109 169.747 109.614C169.477 109.119 169.341 108.522 169.341 107.822V103.286H170.923V107.584C170.923 108.275 171.096 108.807 171.441 109.18C171.787 109.544 172.258 109.726 172.855 109.726C173.453 109.726 173.924 109.544 174.269 109.18C174.624 108.807 174.801 108.275 174.801 107.584V103.286H176.397ZM179.959 104.406C180.192 104.014 180.5 103.711 180.883 103.496C181.275 103.272 181.737 103.16 182.269 103.16V104.812H181.863C181.238 104.812 180.762 104.971 180.435 105.288C180.118 105.605 179.959 106.156 179.959 106.94V111H178.363V103.286H179.959V104.406ZM190.582 103.286V111H188.986V110.09C188.734 110.407 188.403 110.659 187.992 110.846C187.591 111.023 187.161 111.112 186.704 111.112C186.097 111.112 185.551 110.986 185.066 110.734C184.59 110.482 184.212 110.109 183.932 109.614C183.661 109.119 183.526 108.522 183.526 107.822V103.286H185.108V107.584C185.108 108.275 185.281 108.807 185.626 109.18C185.971 109.544 186.443 109.726 187.04 109.726C187.637 109.726 188.109 109.544 188.454 109.18C188.809 108.807 188.986 108.275 188.986 107.584V103.286H190.582ZM196.538 103.16C197.126 103.16 197.649 103.286 198.106 103.538C198.573 103.79 198.937 104.163 199.198 104.658C199.469 105.153 199.604 105.75 199.604 106.45V111H198.022V106.688C198.022 105.997 197.849 105.47 197.504 105.106C197.159 104.733 196.687 104.546 196.09 104.546C195.493 104.546 195.017 104.733 194.662 105.106C194.317 105.47 194.144 105.997 194.144 106.688V111H192.548V100.64H194.144V104.182C194.415 103.855 194.755 103.603 195.166 103.426C195.586 103.249 196.043 103.16 196.538 103.16ZM206.592 101.27V111H204.996V101.27H206.592ZM212.44 103.16C213.046 103.16 213.588 103.286 214.064 103.538C214.549 103.79 214.927 104.163 215.198 104.658C215.468 105.153 215.604 105.75 215.604 106.45V111H214.022V106.688C214.022 105.997 213.849 105.47 213.504 105.106C213.158 104.733 212.687 104.546 212.09 104.546C211.492 104.546 211.016 104.733 210.662 105.106C210.316 105.47 210.144 105.997 210.144 106.688V111H208.548V103.286H210.144V104.168C210.405 103.851 210.736 103.603 211.138 103.426C211.548 103.249 211.982 103.16 212.44 103.16ZM216.968 107.108C216.968 106.333 217.126 105.647 217.444 105.05C217.77 104.453 218.209 103.991 218.76 103.664C219.32 103.328 219.94 103.16 220.622 103.16C221.126 103.16 221.62 103.272 222.106 103.496C222.6 103.711 222.992 104 223.282 104.364V100.64H224.892V111H223.282V109.838C223.02 110.211 222.656 110.519 222.19 110.762C221.732 111.005 221.205 111.126 220.608 111.126C219.936 111.126 219.32 110.958 218.76 110.622C218.209 110.277 217.77 109.801 217.444 109.194C217.126 108.578 216.968 107.883 216.968 107.108ZM223.282 107.136C223.282 106.604 223.17 106.142 222.946 105.75C222.731 105.358 222.446 105.059 222.092 104.854C221.737 104.649 221.354 104.546 220.944 104.546C220.533 104.546 220.15 104.649 219.796 104.854C219.441 105.05 219.152 105.344 218.928 105.736C218.713 106.119 218.606 106.576 218.606 107.108C218.606 107.64 218.713 108.107 218.928 108.508C219.152 108.909 219.441 109.217 219.796 109.432C220.16 109.637 220.542 109.74 220.944 109.74C221.354 109.74 221.737 109.637 222.092 109.432C222.446 109.227 222.731 108.928 222.946 108.536C223.17 108.135 223.282 107.668 223.282 107.136ZM230.194 111.126C229.466 111.126 228.808 110.963 228.22 110.636C227.632 110.3 227.17 109.833 226.834 109.236C226.498 108.629 226.33 107.929 226.33 107.136C226.33 106.352 226.503 105.657 226.848 105.05C227.193 104.443 227.665 103.977 228.262 103.65C228.859 103.323 229.527 103.16 230.264 103.16C231.001 103.16 231.669 103.323 232.266 103.65C232.863 103.977 233.335 104.443 233.68 105.05C234.025 105.657 234.198 106.352 234.198 107.136C234.198 107.92 234.021 108.615 233.666 109.222C233.311 109.829 232.826 110.3 232.21 110.636C231.603 110.963 230.931 111.126 230.194 111.126ZM230.194 109.74C230.605 109.74 230.987 109.642 231.342 109.446C231.706 109.25 232 108.956 232.224 108.564C232.448 108.172 232.56 107.696 232.56 107.136C232.56 106.576 232.453 106.105 232.238 105.722C232.023 105.33 231.739 105.036 231.384 104.84C231.029 104.644 230.647 104.546 230.236 104.546C229.825 104.546 229.443 104.644 229.088 104.84C228.743 105.036 228.467 105.33 228.262 105.722C228.057 106.105 227.954 106.576 227.954 107.136C227.954 107.967 228.164 108.611 228.584 109.068C229.013 109.516 229.55 109.74 230.194 109.74ZM239.528 103.16C240.134 103.16 240.676 103.286 241.152 103.538C241.637 103.79 242.015 104.163 242.286 104.658C242.556 105.153 242.692 105.75 242.692 106.45V111H241.11V106.688C241.11 105.997 240.937 105.47 240.592 105.106C240.246 104.733 239.775 104.546 239.178 104.546C238.58 104.546 238.104 104.733 237.75 105.106C237.404 105.47 237.232 105.997 237.232 106.688V111H235.636V103.286H237.232V104.168C237.493 103.851 237.824 103.603 238.226 103.426C238.636 103.249 239.07 103.16 239.528 103.16ZM251.657 106.954C251.657 107.243 251.639 107.505 251.601 107.738H245.707C245.754 108.354 245.983 108.849 246.393 109.222C246.804 109.595 247.308 109.782 247.905 109.782C248.764 109.782 249.371 109.423 249.725 108.704H251.447C251.214 109.413 250.789 109.997 250.173 110.454C249.567 110.902 248.811 111.126 247.905 111.126C247.168 111.126 246.505 110.963 245.917 110.636C245.339 110.3 244.881 109.833 244.545 109.236C244.219 108.629 244.055 107.929 244.055 107.136C244.055 106.343 244.214 105.647 244.531 105.05C244.858 104.443 245.311 103.977 245.889 103.65C246.477 103.323 247.149 103.16 247.905 103.16C248.633 103.16 249.282 103.319 249.851 103.636C250.421 103.953 250.864 104.401 251.181 104.98C251.499 105.549 251.657 106.207 251.657 106.954ZM249.991 106.45C249.982 105.862 249.772 105.391 249.361 105.036C248.951 104.681 248.442 104.504 247.835 104.504C247.285 104.504 246.813 104.681 246.421 105.036C246.029 105.381 245.796 105.853 245.721 106.45H249.991ZM255.888 111.126C255.281 111.126 254.735 111.019 254.25 110.804C253.774 110.58 253.396 110.281 253.116 109.908C252.836 109.525 252.687 109.101 252.668 108.634H254.32C254.348 108.961 254.502 109.236 254.782 109.46C255.071 109.675 255.431 109.782 255.86 109.782C256.308 109.782 256.653 109.698 256.896 109.53C257.148 109.353 257.274 109.129 257.274 108.858C257.274 108.569 257.134 108.354 256.854 108.214C256.583 108.074 256.149 107.92 255.552 107.752C254.973 107.593 254.502 107.439 254.138 107.29C253.774 107.141 253.457 106.912 253.186 106.604C252.925 106.296 252.794 105.89 252.794 105.386C252.794 104.975 252.915 104.602 253.158 104.266C253.401 103.921 253.746 103.65 254.194 103.454C254.651 103.258 255.174 103.16 255.762 103.16C256.639 103.16 257.344 103.384 257.876 103.832C258.417 104.271 258.707 104.873 258.744 105.638H257.148C257.12 105.293 256.98 105.017 256.728 104.812C256.476 104.607 256.135 104.504 255.706 104.504C255.286 104.504 254.964 104.583 254.74 104.742C254.516 104.901 254.404 105.111 254.404 105.372C254.404 105.577 254.479 105.75 254.628 105.89C254.777 106.03 254.959 106.142 255.174 106.226C255.389 106.301 255.706 106.399 256.126 106.52C256.686 106.669 257.143 106.823 257.498 106.982C257.862 107.131 258.175 107.355 258.436 107.654C258.697 107.953 258.833 108.349 258.842 108.844C258.842 109.283 258.721 109.675 258.478 110.02C258.235 110.365 257.89 110.636 257.442 110.832C257.003 111.028 256.485 111.126 255.888 111.126ZM261.239 102.264C260.949 102.264 260.707 102.166 260.511 101.97C260.315 101.774 260.217 101.531 260.217 101.242C260.217 100.953 260.315 100.71 260.511 100.514C260.707 100.318 260.949 100.22 261.239 100.22C261.519 100.22 261.757 100.318 261.953 100.514C262.149 100.71 262.247 100.953 262.247 101.242C262.247 101.531 262.149 101.774 261.953 101.97C261.757 102.166 261.519 102.264 261.239 102.264ZM262.023 103.286V111H260.427V103.286H262.023ZM263.446 107.108C263.446 106.333 263.605 105.647 263.922 105.05C264.249 104.453 264.687 103.991 265.238 103.664C265.798 103.328 266.414 103.16 267.086 103.16C267.693 103.16 268.22 103.281 268.668 103.524C269.125 103.757 269.489 104.051 269.76 104.406V103.286H271.37V111H269.76V109.852C269.489 110.216 269.121 110.519 268.654 110.762C268.187 111.005 267.655 111.126 267.058 111.126C266.395 111.126 265.789 110.958 265.238 110.622C264.687 110.277 264.249 109.801 263.922 109.194C263.605 108.578 263.446 107.883 263.446 107.108ZM269.76 107.136C269.76 106.604 269.648 106.142 269.424 105.75C269.209 105.358 268.925 105.059 268.57 104.854C268.215 104.649 267.833 104.546 267.422 104.546C267.011 104.546 266.629 104.649 266.274 104.854C265.919 105.05 265.63 105.344 265.406 105.736C265.191 106.119 265.084 106.576 265.084 107.108C265.084 107.64 265.191 108.107 265.406 108.508C265.63 108.909 265.919 109.217 266.274 109.432C266.638 109.637 267.021 109.74 267.422 109.74C267.833 109.74 268.215 109.637 268.57 109.432C268.925 109.227 269.209 108.928 269.424 108.536C269.648 108.135 269.76 107.668 269.76 107.136Z" fill="#1F1F1F" fill-opacity="0.7"/>
</g>
<defs>
<filter id="filter0_d_280_58" x="0" y="0" width="404" height="224" filterUnits="userSpaceOnUse" color-interpolation-filters="sRGB">
<feFlood flood-opacity="0" result="BackgroundImageFix"/>
<feColorMatrix in="SourceAlpha" type="matrix" values="0 0 0 0 0 0 0 0 0 0 0 0 0 0 0 0 0 0 127 0" result="hardAlpha"/>
<feOffset dy="20"/>
<feGaussianBlur stdDeviation="40"/>
<feComposite in2="hardAlpha" operator="out"/>
<feColorMatrix type="matrix" values="0 0 0 0 0 0 0 0 0 0 0 0 0 0 0 0 0 0 0.08 0"/>
<feBlend mode="normal" in2="BackgroundImageFix" result="effect1_dropShadow_280_58"/>
<feBlend mode="normal" in="SourceGraphic" in2="effect1_dropShadow_280_58" result="shape"/>
</filter>
</defs>
</svg>
