<svg width="364" height="232" viewBox="0 0 364 232" fill="none" xmlns="http://www.w3.org/2000/svg">
<g filter="url(#filter0_d_281_101)">
<rect x="80" y="60" width="241.416" height="72" rx="36" fill="white" shape-rendering="crispEdges"/>
<rect x="80.5" y="60.5" width="240.416" height="71" rx="35.5" stroke="#F5F5F5" shape-rendering="crispEdges"/>
<rect x="92" y="72" width="48" height="48" rx="24" fill="#19B269"/>
<path d="M117 93V87.5L122.5 93M110 86C108.89 86 108 86.89 108 88V104C108 104.53 108.211 105.039 108.586 105.414C108.961 105.789 109.47 106 110 106H122C122.53 106 123.039 105.789 123.414 105.414C123.789 105.039 124 104.53 124 104V92L118 86H110Z" fill="white"/>
<path d="M157.58 90.126C156.704 90.126 155.912 89.976 155.204 89.676C154.508 89.376 153.956 88.944 153.548 88.38C153.14 87.816 152.93 87.15 152.918 86.382H155.618C155.654 86.898 155.834 87.306 156.158 87.606C156.494 87.906 156.95 88.056 157.526 88.056C158.114 88.056 158.576 87.918 158.912 87.642C159.248 87.354 159.416 86.982 159.416 86.526C159.416 86.154 159.302 85.848 159.074 85.608C158.846 85.368 158.558 85.182 158.21 85.05C157.874 84.906 157.406 84.75 156.806 84.582C155.99 84.342 155.324 84.108 154.808 83.88C154.304 83.64 153.866 83.286 153.494 82.818C153.134 82.338 152.954 81.702 152.954 80.91C152.954 80.166 153.14 79.518 153.512 78.966C153.884 78.414 154.406 77.994 155.078 77.706C155.75 77.406 156.518 77.256 157.382 77.256C158.678 77.256 159.728 77.574 160.532 78.21C161.348 78.834 161.798 79.71 161.882 80.838H159.11C159.086 80.406 158.9 80.052 158.552 79.776C158.216 79.488 157.766 79.344 157.202 79.344C156.71 79.344 156.314 79.47 156.014 79.722C155.726 79.974 155.582 80.34 155.582 80.82C155.582 81.156 155.69 81.438 155.906 81.666C156.134 81.882 156.41 82.062 156.734 82.206C157.07 82.338 157.538 82.494 158.138 82.674C158.954 82.914 159.62 83.154 160.136 83.394C160.652 83.634 161.096 83.994 161.468 84.474C161.84 84.954 162.026 85.584 162.026 86.364C162.026 87.036 161.852 87.66 161.504 88.236C161.156 88.812 160.646 89.274 159.974 89.622C159.302 89.958 158.504 90.126 157.58 90.126ZM168.459 90.162C167.499 90.162 166.635 89.952 165.867 89.532C165.099 89.1 164.493 88.494 164.049 87.714C163.617 86.934 163.401 86.034 163.401 85.014C163.401 83.994 163.623 83.094 164.067 82.314C164.523 81.534 165.141 80.934 165.921 80.514C166.701 80.082 167.571 79.866 168.531 79.866C169.491 79.866 170.361 80.082 171.141 80.514C171.921 80.934 172.533 81.534 172.977 82.314C173.433 83.094 173.661 83.994 173.661 85.014C173.661 86.034 173.427 86.934 172.959 87.714C172.503 88.494 171.879 89.1 171.087 89.532C170.307 89.952 169.431 90.162 168.459 90.162ZM168.459 87.966C168.915 87.966 169.341 87.858 169.737 87.642C170.145 87.414 170.469 87.078 170.709 86.634C170.949 86.19 171.069 85.65 171.069 85.014C171.069 84.066 170.817 83.34 170.313 82.836C169.821 82.32 169.215 82.062 168.495 82.062C167.775 82.062 167.169 82.32 166.677 82.836C166.197 83.34 165.957 84.066 165.957 85.014C165.957 85.962 166.191 86.694 166.659 87.21C167.139 87.714 167.739 87.966 168.459 87.966ZM174.681 84.978C174.681 83.97 174.879 83.076 175.275 82.296C175.683 81.516 176.229 80.916 176.913 80.496C177.609 80.076 178.383 79.866 179.235 79.866C179.979 79.866 180.627 80.016 181.179 80.316C181.743 80.616 182.193 80.994 182.529 81.45V80.028H185.067V90H182.529V88.542C182.205 89.01 181.755 89.4 181.179 89.712C180.615 90.012 179.961 90.162 179.217 90.162C178.377 90.162 177.609 89.946 176.913 89.514C176.229 89.082 175.683 88.476 175.275 87.696C174.879 86.904 174.681 85.998 174.681 84.978ZM182.529 85.014C182.529 84.402 182.409 83.88 182.169 83.448C181.929 83.004 181.605 82.668 181.197 82.44C180.789 82.2 180.351 82.08 179.883 82.08C179.415 82.08 178.983 82.194 178.587 82.422C178.191 82.65 177.867 82.986 177.615 83.43C177.375 83.862 177.255 84.378 177.255 84.978C177.255 85.578 177.375 86.106 177.615 86.562C177.867 87.006 178.191 87.348 178.587 87.588C178.995 87.828 179.427 87.948 179.883 87.948C180.351 87.948 180.789 87.834 181.197 87.606C181.605 87.366 181.929 87.03 182.169 86.598C182.409 86.154 182.529 85.626 182.529 85.014ZM189.868 76.68V90H187.348V76.68H189.868ZM204.837 77.436V79.47H201.489V90H198.969V79.47H195.621V77.436H204.837ZM215.766 84.798C215.766 85.158 215.742 85.482 215.694 85.77H208.404C208.464 86.49 208.716 87.054 209.16 87.462C209.604 87.87 210.15 88.074 210.798 88.074C211.734 88.074 212.4 87.672 212.796 86.868H215.514C215.226 87.828 214.674 88.62 213.858 89.244C213.042 89.856 212.04 90.162 210.852 90.162C209.892 90.162 209.028 89.952 208.26 89.532C207.504 89.1 206.91 88.494 206.478 87.714C206.058 86.934 205.848 86.034 205.848 85.014C205.848 83.982 206.058 83.076 206.478 82.296C206.898 81.516 207.486 80.916 208.242 80.496C208.998 80.076 209.868 79.866 210.852 79.866C211.8 79.866 212.646 80.07 213.39 80.478C214.146 80.886 214.728 81.468 215.136 82.224C215.556 82.968 215.766 83.826 215.766 84.798ZM213.156 84.078C213.144 83.43 212.91 82.914 212.454 82.53C211.998 82.134 211.44 81.936 210.78 81.936C210.156 81.936 209.628 82.128 209.196 82.512C208.776 82.884 208.518 83.406 208.422 84.078H213.156ZM219.945 81.576C220.269 81.048 220.689 80.634 221.205 80.334C221.733 80.034 222.333 79.884 223.005 79.884V82.53H222.339C221.547 82.53 220.947 82.716 220.539 83.088C220.143 83.46 219.945 84.108 219.945 85.032V90H217.425V80.028H219.945V81.576ZM227.043 81.486C227.367 81.006 227.811 80.616 228.375 80.316C228.951 80.016 229.605 79.866 230.337 79.866C231.189 79.866 231.957 80.076 232.641 80.496C233.337 80.916 233.883 81.516 234.279 82.296C234.687 83.064 234.891 83.958 234.891 84.978C234.891 85.998 234.687 86.904 234.279 87.696C233.883 88.476 233.337 89.082 232.641 89.514C231.957 89.946 231.189 90.162 230.337 90.162C229.593 90.162 228.939 90.018 228.375 89.73C227.823 89.43 227.379 89.046 227.043 88.578V90H224.523V76.68H227.043V81.486ZM232.317 84.978C232.317 84.378 232.191 83.862 231.939 83.43C231.699 82.986 231.375 82.65 230.967 82.422C230.571 82.194 230.139 82.08 229.671 82.08C229.215 82.08 228.783 82.2 228.375 82.44C227.979 82.668 227.655 83.004 227.403 83.448C227.163 83.892 227.043 84.414 227.043 85.014C227.043 85.614 227.163 86.136 227.403 86.58C227.655 87.024 227.979 87.366 228.375 87.606C228.783 87.834 229.215 87.948 229.671 87.948C230.139 87.948 230.571 87.828 230.967 87.588C231.375 87.348 231.699 87.006 231.939 86.562C232.191 86.118 232.317 85.59 232.317 84.978ZM235.894 84.978C235.894 83.97 236.092 83.076 236.488 82.296C236.896 81.516 237.442 80.916 238.126 80.496C238.822 80.076 239.596 79.866 240.448 79.866C241.192 79.866 241.84 80.016 242.392 80.316C242.956 80.616 243.406 80.994 243.742 81.45V80.028H246.28V90H243.742V88.542C243.418 89.01 242.968 89.4 242.392 89.712C241.828 90.012 241.174 90.162 240.43 90.162C239.59 90.162 238.822 89.946 238.126 89.514C237.442 89.082 236.896 88.476 236.488 87.696C236.092 86.904 235.894 85.998 235.894 84.978ZM243.742 85.014C243.742 84.402 243.622 83.88 243.382 83.448C243.142 83.004 242.818 82.668 242.41 82.44C242.002 82.2 241.564 82.08 241.096 82.08C240.628 82.08 240.196 82.194 239.8 82.422C239.404 82.65 239.08 82.986 238.828 83.43C238.588 83.862 238.468 84.378 238.468 84.978C238.468 85.578 238.588 86.106 238.828 86.562C239.08 87.006 239.404 87.348 239.8 87.588C240.208 87.828 240.64 87.948 241.096 87.948C241.564 87.948 242.002 87.834 242.41 87.606C242.818 87.366 243.142 87.03 243.382 86.598C243.622 86.154 243.742 85.626 243.742 85.014ZM251.081 81.576C251.405 81.048 251.825 80.634 252.341 80.334C252.869 80.034 253.469 79.884 254.141 79.884V82.53H253.475C252.683 82.53 252.083 82.716 251.675 83.088C251.279 83.46 251.081 84.108 251.081 85.032V90H248.561V80.028H251.081V81.576ZM265.072 80.028V90H262.534V88.74C262.21 89.172 261.784 89.514 261.256 89.766C260.74 90.006 260.176 90.126 259.564 90.126C258.784 90.126 258.094 89.964 257.494 89.64C256.894 89.304 256.42 88.818 256.072 88.182C255.736 87.534 255.568 86.766 255.568 85.878V80.028H258.088V85.518C258.088 86.31 258.286 86.922 258.682 87.354C259.078 87.774 259.618 87.984 260.302 87.984C260.998 87.984 261.544 87.774 261.94 87.354C262.336 86.922 262.534 86.31 262.534 85.518V80.028H265.072Z" fill="#1F1F1F"/>
<path d="M156.256 115.098C155.603 115.098 155.015 114.986 154.492 114.762C153.969 114.529 153.559 114.202 153.26 113.782C152.961 113.362 152.812 112.872 152.812 112.312H154.52C154.557 112.732 154.721 113.077 155.01 113.348C155.309 113.619 155.724 113.754 156.256 113.754C156.807 113.754 157.236 113.623 157.544 113.362C157.852 113.091 158.006 112.746 158.006 112.326C158.006 111.999 157.908 111.733 157.712 111.528C157.525 111.323 157.287 111.164 156.998 111.052C156.718 110.94 156.326 110.819 155.822 110.688C155.187 110.52 154.669 110.352 154.268 110.184C153.876 110.007 153.54 109.736 153.26 109.372C152.98 109.008 152.84 108.523 152.84 107.916C152.84 107.356 152.98 106.866 153.26 106.446C153.54 106.026 153.932 105.704 154.436 105.48C154.94 105.256 155.523 105.144 156.186 105.144C157.129 105.144 157.899 105.382 158.496 105.858C159.103 106.325 159.439 106.969 159.504 107.79H157.74C157.712 107.435 157.544 107.132 157.236 106.88C156.928 106.628 156.522 106.502 156.018 106.502C155.561 106.502 155.187 106.619 154.898 106.852C154.609 107.085 154.464 107.421 154.464 107.86C154.464 108.159 154.553 108.406 154.73 108.602C154.917 108.789 155.15 108.938 155.43 109.05C155.71 109.162 156.093 109.283 156.578 109.414C157.222 109.591 157.745 109.769 158.146 109.946C158.557 110.123 158.902 110.399 159.182 110.772C159.471 111.136 159.616 111.626 159.616 112.242C159.616 112.737 159.481 113.203 159.21 113.642C158.949 114.081 158.561 114.435 158.048 114.706C157.544 114.967 156.947 115.098 156.256 115.098ZM168.429 110.954C168.429 111.243 168.411 111.505 168.373 111.738H162.479C162.526 112.354 162.755 112.849 163.165 113.222C163.576 113.595 164.08 113.782 164.677 113.782C165.536 113.782 166.143 113.423 166.497 112.704H168.219C167.986 113.413 167.561 113.997 166.945 114.454C166.339 114.902 165.583 115.126 164.677 115.126C163.94 115.126 163.277 114.963 162.689 114.636C162.111 114.3 161.653 113.833 161.317 113.236C160.991 112.629 160.827 111.929 160.827 111.136C160.827 110.343 160.986 109.647 161.303 109.05C161.63 108.443 162.083 107.977 162.661 107.65C163.249 107.323 163.921 107.16 164.677 107.16C165.405 107.16 166.054 107.319 166.623 107.636C167.193 107.953 167.636 108.401 167.953 108.98C168.271 109.549 168.429 110.207 168.429 110.954ZM166.763 110.45C166.754 109.862 166.544 109.391 166.133 109.036C165.723 108.681 165.214 108.504 164.607 108.504C164.057 108.504 163.585 108.681 163.193 109.036C162.801 109.381 162.568 109.853 162.493 110.45H166.763ZM172.66 115.126C172.053 115.126 171.507 115.019 171.022 114.804C170.546 114.58 170.168 114.281 169.888 113.908C169.608 113.525 169.459 113.101 169.44 112.634H171.092C171.12 112.961 171.274 113.236 171.554 113.46C171.843 113.675 172.203 113.782 172.632 113.782C173.08 113.782 173.425 113.698 173.668 113.53C173.92 113.353 174.046 113.129 174.046 112.858C174.046 112.569 173.906 112.354 173.626 112.214C173.355 112.074 172.921 111.92 172.324 111.752C171.745 111.593 171.274 111.439 170.91 111.29C170.546 111.141 170.229 110.912 169.958 110.604C169.697 110.296 169.566 109.89 169.566 109.386C169.566 108.975 169.687 108.602 169.93 108.266C170.173 107.921 170.518 107.65 170.966 107.454C171.423 107.258 171.946 107.16 172.534 107.16C173.411 107.16 174.116 107.384 174.648 107.832C175.189 108.271 175.479 108.873 175.516 109.638H173.92C173.892 109.293 173.752 109.017 173.5 108.812C173.248 108.607 172.907 108.504 172.478 108.504C172.058 108.504 171.736 108.583 171.512 108.742C171.288 108.901 171.176 109.111 171.176 109.372C171.176 109.577 171.251 109.75 171.4 109.89C171.549 110.03 171.731 110.142 171.946 110.226C172.161 110.301 172.478 110.399 172.898 110.52C173.458 110.669 173.915 110.823 174.27 110.982C174.634 111.131 174.947 111.355 175.208 111.654C175.469 111.953 175.605 112.349 175.614 112.844C175.614 113.283 175.493 113.675 175.25 114.02C175.007 114.365 174.662 114.636 174.214 114.832C173.775 115.028 173.257 115.126 172.66 115.126ZM184.184 107.286V115H182.588V114.09C182.336 114.407 182.005 114.659 181.594 114.846C181.193 115.023 180.764 115.112 180.306 115.112C179.7 115.112 179.154 114.986 178.668 114.734C178.192 114.482 177.814 114.109 177.534 113.614C177.264 113.119 177.128 112.522 177.128 111.822V107.286H178.71V111.584C178.71 112.275 178.883 112.807 179.228 113.18C179.574 113.544 180.045 113.726 180.642 113.726C181.24 113.726 181.711 113.544 182.056 113.18C182.411 112.807 182.588 112.275 182.588 111.584V107.286H184.184ZM185.618 111.108C185.618 110.333 185.777 109.647 186.094 109.05C186.421 108.453 186.859 107.991 187.41 107.664C187.97 107.328 188.586 107.16 189.258 107.16C189.865 107.16 190.392 107.281 190.84 107.524C191.297 107.757 191.661 108.051 191.932 108.406V107.286H193.542V115H191.932V113.852C191.661 114.216 191.293 114.519 190.826 114.762C190.359 115.005 189.827 115.126 189.23 115.126C188.567 115.126 187.961 114.958 187.41 114.622C186.859 114.277 186.421 113.801 186.094 113.194C185.777 112.578 185.618 111.883 185.618 111.108ZM191.932 111.136C191.932 110.604 191.82 110.142 191.596 109.75C191.381 109.358 191.097 109.059 190.742 108.854C190.387 108.649 190.005 108.546 189.594 108.546C189.183 108.546 188.801 108.649 188.446 108.854C188.091 109.05 187.802 109.344 187.578 109.736C187.363 110.119 187.256 110.576 187.256 111.108C187.256 111.64 187.363 112.107 187.578 112.508C187.802 112.909 188.091 113.217 188.446 113.432C188.81 113.637 189.193 113.74 189.594 113.74C190.005 113.74 190.387 113.637 190.742 113.432C191.097 113.227 191.381 112.928 191.596 112.536C191.82 112.135 191.932 111.668 191.932 111.136ZM196.31 106.264C196.021 106.264 195.778 106.166 195.582 105.97C195.386 105.774 195.288 105.531 195.288 105.242C195.288 104.953 195.386 104.71 195.582 104.514C195.778 104.318 196.021 104.22 196.31 104.22C196.59 104.22 196.828 104.318 197.024 104.514C197.22 104.71 197.318 104.953 197.318 105.242C197.318 105.531 197.22 105.774 197.024 105.97C196.828 106.166 196.59 106.264 196.31 106.264ZM197.094 107.286V115H195.498V107.286H197.094ZM202.015 110.114C202.015 109.162 202.234 108.308 202.673 107.552C203.121 106.796 203.723 106.208 204.479 105.788C205.244 105.359 206.079 105.144 206.985 105.144C208.021 105.144 208.94 105.401 209.743 105.914C210.555 106.418 211.143 107.137 211.507 108.07H209.589C209.337 107.557 208.987 107.174 208.539 106.922C208.091 106.67 207.573 106.544 206.985 106.544C206.341 106.544 205.767 106.689 205.263 106.978C204.759 107.267 204.362 107.683 204.073 108.224C203.793 108.765 203.653 109.395 203.653 110.114C203.653 110.833 203.793 111.463 204.073 112.004C204.362 112.545 204.759 112.965 205.263 113.264C205.767 113.553 206.341 113.698 206.985 113.698C207.573 113.698 208.091 113.572 208.539 113.32C208.987 113.068 209.337 112.685 209.589 112.172H211.507C211.143 113.105 210.555 113.824 209.743 114.328C208.94 114.832 208.021 115.084 206.985 115.084C206.07 115.084 205.235 114.874 204.479 114.454C203.723 114.025 203.121 113.432 202.673 112.676C202.234 111.92 202.015 111.066 202.015 110.114ZM219.101 113.012H215.027L214.327 115H212.661L216.147 105.256H217.995L221.481 115H219.801L219.101 113.012ZM218.653 111.71L217.071 107.188L215.475 111.71H218.653ZM229.142 105.27V106.572H226.552V115H224.956V106.572H222.352V105.27H229.142ZM234.787 112.83C235.683 112.055 236.388 111.421 236.901 110.926C237.424 110.422 237.858 109.899 238.203 109.358C238.549 108.817 238.721 108.275 238.721 107.734C238.721 107.174 238.586 106.735 238.315 106.418C238.054 106.101 237.639 105.942 237.069 105.942C236.519 105.942 236.089 106.119 235.781 106.474C235.483 106.819 235.324 107.286 235.305 107.874H233.765C233.793 106.81 234.111 105.998 234.717 105.438C235.333 104.869 236.113 104.584 237.055 104.584C238.073 104.584 238.866 104.864 239.435 105.424C240.014 105.984 240.303 106.731 240.303 107.664C240.303 108.336 240.131 108.985 239.785 109.61C239.449 110.226 239.043 110.781 238.567 111.276C238.101 111.761 237.503 112.326 236.775 112.97L236.145 113.53H240.583V114.86H233.779V113.698L234.787 112.83ZM241.846 109.764C241.846 108.149 242.116 106.889 242.658 105.984C243.208 105.069 244.151 104.612 245.486 104.612C246.82 104.612 247.758 105.069 248.3 105.984C248.85 106.889 249.126 108.149 249.126 109.764C249.126 111.397 248.85 112.676 248.3 113.6C247.758 114.515 246.82 114.972 245.486 114.972C244.151 114.972 243.208 114.515 242.658 113.6C242.116 112.676 241.846 111.397 241.846 109.764ZM247.558 109.764C247.558 109.008 247.506 108.369 247.404 107.846C247.31 107.323 247.114 106.899 246.816 106.572C246.517 106.236 246.074 106.068 245.486 106.068C244.898 106.068 244.454 106.236 244.156 106.572C243.857 106.899 243.656 107.323 243.554 107.846C243.46 108.369 243.414 109.008 243.414 109.764C243.414 110.548 243.46 111.206 243.554 111.738C243.647 112.27 243.843 112.699 244.142 113.026C244.45 113.353 244.898 113.516 245.486 113.516C246.074 113.516 246.517 113.353 246.816 113.026C247.124 112.699 247.324 112.27 247.418 111.738C247.511 111.206 247.558 110.548 247.558 109.764ZM251.556 112.83C252.452 112.055 253.157 111.421 253.67 110.926C254.193 110.422 254.627 109.899 254.972 109.358C255.318 108.817 255.49 108.275 255.49 107.734C255.49 107.174 255.355 106.735 255.084 106.418C254.823 106.101 254.408 105.942 253.838 105.942C253.288 105.942 252.858 106.119 252.55 106.474C252.252 106.819 252.093 107.286 252.074 107.874H250.534C250.562 106.81 250.88 105.998 251.486 105.438C252.102 104.869 252.882 104.584 253.824 104.584C254.842 104.584 255.635 104.864 256.204 105.424C256.783 105.984 257.072 106.731 257.072 107.664C257.072 108.336 256.9 108.985 256.554 109.61C256.218 110.226 255.812 110.781 255.336 111.276C254.87 111.761 254.272 112.326 253.544 112.97L252.914 113.53H257.352V114.86H250.548V113.698L251.556 112.83ZM258.418 112.872V111.668L263.122 104.92H265.054V111.486H266.356V112.872H265.054V115H263.486V112.872H258.418ZM263.556 106.544L260.252 111.486H263.556V106.544Z" fill="#1F1F1F" fill-opacity="0.7"/>
</g>
<defs>
<filter id="filter0_d_281_101" x="0" y="0" width="401.416" height="232" filterUnits="userSpaceOnUse" color-interpolation-filters="sRGB">
<feFlood flood-opacity="0" result="BackgroundImageFix"/>
<feColorMatrix in="SourceAlpha" type="matrix" values="0 0 0 0 0 0 0 0 0 0 0 0 0 0 0 0 0 0 127 0" result="hardAlpha"/>
<feOffset dy="20"/>
<feGaussianBlur stdDeviation="40"/>
<feComposite in2="hardAlpha" operator="out"/>
<feColorMatrix type="matrix" values="0 0 0 0 0 0 0 0 0 0 0 0 0 0 0 0 0 0 0.08 0"/>
<feBlend mode="normal" in2="BackgroundImageFix" result="effect1_dropShadow_281_101"/>
<feBlend mode="normal" in="SourceGraphic" in2="effect1_dropShadow_281_101" result="shape"/>
</filter>
</defs>
</svg>
