<svg width="372" height="232" viewBox="0 0 372 232" fill="none" xmlns="http://www.w3.org/2000/svg">
<g filter="url(#filter0_d_281_119)">
<rect x="80" y="60" width="245.416" height="72" rx="36" fill="white" shape-rendering="crispEdges"/>
<rect x="80.5" y="60.5" width="244.416" height="71" rx="35.5" stroke="#F5F5F5" shape-rendering="crispEdges"/>
<rect x="92" y="72" width="48" height="48" rx="24" fill="#BEBDF6"/>
<path d="M126.5 102.75H125.75V97.5C125.75 97.1022 125.592 96.7206 125.311 96.4393C125.029 96.158 124.648 96 124.25 96H120.5V89.25C120.5 88.8522 120.342 88.4706 120.061 88.1893C119.779 87.908 119.398 87.75 119 87.75H113C112.602 87.75 112.221 87.908 111.939 88.1893C111.658 88.4706 111.5 88.8522 111.5 89.25V92.25H107.75C107.352 92.25 106.971 92.408 106.689 92.6893C106.408 92.9706 106.25 93.3522 106.25 93.75V102.75H105.5C105.301 102.75 105.11 102.829 104.97 102.97C104.829 103.11 104.75 103.301 104.75 103.5C104.75 103.699 104.829 103.89 104.97 104.03C105.11 104.171 105.301 104.25 105.5 104.25H126.5C126.699 104.25 126.89 104.171 127.03 104.03C127.171 103.89 127.25 103.699 127.25 103.5C127.25 103.301 127.171 103.11 127.03 102.97C126.89 102.829 126.699 102.75 126.5 102.75ZM111.5 102.75H107.75V93.75H111.5V102.75ZM117.125 96.75C117.125 96.9489 117.046 97.1397 116.905 97.2803C116.765 97.421 116.574 97.5 116.375 97.5C116.176 97.5 115.985 97.421 115.845 97.2803C115.704 97.1397 115.625 96.9489 115.625 96.75V94.0406L115.487 94.0866C115.394 94.1177 115.295 94.1301 115.197 94.1232C115.099 94.1162 115.003 94.0899 114.915 94.0459C114.826 94.0018 114.748 93.9408 114.683 93.8664C114.619 93.792 114.57 93.7056 114.538 93.6122C114.507 93.5187 114.495 93.4201 114.502 93.3218C114.509 93.2236 114.535 93.1277 114.579 93.0396C114.623 92.9515 114.684 92.8729 114.759 92.8084C114.833 92.7438 114.919 92.6946 115.013 92.6634L116.138 92.2884C116.251 92.2509 116.371 92.2406 116.488 92.2585C116.606 92.2764 116.717 92.322 116.814 92.3915C116.91 92.461 116.988 92.5524 117.043 92.6582C117.097 92.764 117.125 92.8812 117.125 93V96.75ZM124.25 102.75H120.5V97.5H124.25V102.75Z" fill="#FFEEEE"/>
<path d="M159.722 90L156.95 85.104H155.762V90H153.242V77.436H157.958C158.93 77.436 159.758 77.61 160.442 77.958C161.126 78.294 161.636 78.756 161.972 79.344C162.32 79.92 162.494 80.568 162.494 81.288C162.494 82.116 162.254 82.866 161.774 83.538C161.294 84.198 160.58 84.654 159.632 84.906L162.638 90H159.722ZM155.762 83.214H157.868C158.552 83.214 159.062 83.052 159.398 82.728C159.734 82.392 159.902 81.93 159.902 81.342C159.902 80.766 159.734 80.322 159.398 80.01C159.062 79.686 158.552 79.524 157.868 79.524H155.762V83.214ZM163.945 84.978C163.945 83.97 164.143 83.076 164.539 82.296C164.947 81.516 165.493 80.916 166.177 80.496C166.873 80.076 167.647 79.866 168.499 79.866C169.243 79.866 169.891 80.016 170.443 80.316C171.007 80.616 171.457 80.994 171.793 81.45V80.028H174.331V90H171.793V88.542C171.469 89.01 171.019 89.4 170.443 89.712C169.879 90.012 169.225 90.162 168.481 90.162C167.641 90.162 166.873 89.946 166.177 89.514C165.493 89.082 164.947 88.476 164.539 87.696C164.143 86.904 163.945 85.998 163.945 84.978ZM171.793 85.014C171.793 84.402 171.673 83.88 171.433 83.448C171.193 83.004 170.869 82.668 170.461 82.44C170.053 82.2 169.615 82.08 169.147 82.08C168.679 82.08 168.247 82.194 167.851 82.422C167.455 82.65 167.131 82.986 166.879 83.43C166.639 83.862 166.519 84.378 166.519 84.978C166.519 85.578 166.639 86.106 166.879 86.562C167.131 87.006 167.455 87.348 167.851 87.588C168.259 87.828 168.691 87.948 169.147 87.948C169.615 87.948 170.053 87.834 170.461 87.606C170.869 87.366 171.193 87.03 171.433 86.598C171.673 86.154 171.793 85.626 171.793 85.014ZM182.138 79.884C183.326 79.884 184.286 80.262 185.018 81.018C185.75 81.762 186.116 82.806 186.116 84.15V90H183.596V84.492C183.596 83.7 183.398 83.094 183.002 82.674C182.606 82.242 182.066 82.026 181.382 82.026C180.686 82.026 180.134 82.242 179.726 82.674C179.33 83.094 179.132 83.7 179.132 84.492V90H176.612V80.028H179.132V81.27C179.468 80.838 179.894 80.502 180.41 80.262C180.938 80.01 181.514 79.884 182.138 79.884ZM194.237 90L190.853 85.752V90H188.333V76.68H190.853V84.258L194.201 80.028H197.477L193.085 85.032L197.513 90H194.237ZM199.943 78.84C199.499 78.84 199.127 78.702 198.827 78.426C198.539 78.138 198.395 77.784 198.395 77.364C198.395 76.944 198.539 76.596 198.827 76.32C199.127 76.032 199.499 75.888 199.943 75.888C200.387 75.888 200.753 76.032 201.041 76.32C201.341 76.596 201.491 76.944 201.491 77.364C201.491 77.784 201.341 78.138 201.041 78.426C200.753 78.702 200.387 78.84 199.943 78.84ZM201.185 80.028V90H198.665V80.028H201.185ZM209.02 79.884C210.208 79.884 211.168 80.262 211.9 81.018C212.632 81.762 212.998 82.806 212.998 84.15V90H210.478V84.492C210.478 83.7 210.28 83.094 209.884 82.674C209.488 82.242 208.948 82.026 208.264 82.026C207.568 82.026 207.016 82.242 206.608 82.674C206.212 83.094 206.014 83.7 206.014 84.492V90H203.494V80.028H206.014V81.27C206.35 80.838 206.776 80.502 207.292 80.262C207.82 80.01 208.396 79.884 209.02 79.884ZM219.121 79.866C219.865 79.866 220.519 80.016 221.083 80.316C221.647 80.604 222.091 80.982 222.415 81.45V80.028H224.953V90.072C224.953 90.996 224.767 91.818 224.395 92.538C224.023 93.27 223.465 93.846 222.721 94.266C221.977 94.698 221.077 94.914 220.021 94.914C218.605 94.914 217.441 94.584 216.529 93.924C215.629 93.264 215.119 92.364 214.999 91.224H217.501C217.633 91.68 217.915 92.04 218.347 92.304C218.791 92.58 219.325 92.718 219.949 92.718C220.681 92.718 221.275 92.496 221.731 92.052C222.187 91.62 222.415 90.96 222.415 90.072V88.524C222.091 88.992 221.641 89.382 221.065 89.694C220.501 90.006 219.853 90.162 219.121 90.162C218.281 90.162 217.513 89.946 216.817 89.514C216.121 89.082 215.569 88.476 215.161 87.696C214.765 86.904 214.567 85.998 214.567 84.978C214.567 83.97 214.765 83.076 215.161 82.296C215.569 81.516 216.115 80.916 216.799 80.496C217.495 80.076 218.269 79.866 219.121 79.866ZM222.415 85.014C222.415 84.402 222.295 83.88 222.055 83.448C221.815 83.004 221.491 82.668 221.083 82.44C220.675 82.2 220.237 82.08 219.769 82.08C219.301 82.08 218.869 82.194 218.473 82.422C218.077 82.65 217.753 82.986 217.501 83.43C217.261 83.862 217.141 84.378 217.141 84.978C217.141 85.578 217.261 86.106 217.501 86.562C217.753 87.006 218.077 87.348 218.473 87.588C218.881 87.828 219.313 87.948 219.769 87.948C220.237 87.948 220.675 87.834 221.083 87.606C221.491 87.366 221.815 87.03 222.055 86.598C222.295 86.154 222.415 85.626 222.415 85.014Z" fill="#1F1F1F"/>
<path d="M156.256 115.098C155.603 115.098 155.015 114.986 154.492 114.762C153.969 114.529 153.559 114.202 153.26 113.782C152.961 113.362 152.812 112.872 152.812 112.312H154.52C154.557 112.732 154.721 113.077 155.01 113.348C155.309 113.619 155.724 113.754 156.256 113.754C156.807 113.754 157.236 113.623 157.544 113.362C157.852 113.091 158.006 112.746 158.006 112.326C158.006 111.999 157.908 111.733 157.712 111.528C157.525 111.323 157.287 111.164 156.998 111.052C156.718 110.94 156.326 110.819 155.822 110.688C155.187 110.52 154.669 110.352 154.268 110.184C153.876 110.007 153.54 109.736 153.26 109.372C152.98 109.008 152.84 108.523 152.84 107.916C152.84 107.356 152.98 106.866 153.26 106.446C153.54 106.026 153.932 105.704 154.436 105.48C154.94 105.256 155.523 105.144 156.186 105.144C157.129 105.144 157.899 105.382 158.496 105.858C159.103 106.325 159.439 106.969 159.504 107.79H157.74C157.712 107.435 157.544 107.132 157.236 106.88C156.928 106.628 156.522 106.502 156.018 106.502C155.561 106.502 155.187 106.619 154.898 106.852C154.609 107.085 154.464 107.421 154.464 107.86C154.464 108.159 154.553 108.406 154.73 108.602C154.917 108.789 155.15 108.938 155.43 109.05C155.71 109.162 156.093 109.283 156.578 109.414C157.222 109.591 157.745 109.769 158.146 109.946C158.557 110.123 158.902 110.399 159.182 110.772C159.471 111.136 159.616 111.626 159.616 112.242C159.616 112.737 159.481 113.203 159.21 113.642C158.949 114.081 158.561 114.435 158.048 114.706C157.544 114.967 156.947 115.098 156.256 115.098ZM168.429 110.954C168.429 111.243 168.411 111.505 168.373 111.738H162.479C162.526 112.354 162.755 112.849 163.165 113.222C163.576 113.595 164.08 113.782 164.677 113.782C165.536 113.782 166.143 113.423 166.497 112.704H168.219C167.986 113.413 167.561 113.997 166.945 114.454C166.339 114.902 165.583 115.126 164.677 115.126C163.94 115.126 163.277 114.963 162.689 114.636C162.111 114.3 161.653 113.833 161.317 113.236C160.991 112.629 160.827 111.929 160.827 111.136C160.827 110.343 160.986 109.647 161.303 109.05C161.63 108.443 162.083 107.977 162.661 107.65C163.249 107.323 163.921 107.16 164.677 107.16C165.405 107.16 166.054 107.319 166.623 107.636C167.193 107.953 167.636 108.401 167.953 108.98C168.271 109.549 168.429 110.207 168.429 110.954ZM166.763 110.45C166.754 109.862 166.544 109.391 166.133 109.036C165.723 108.681 165.214 108.504 164.607 108.504C164.057 108.504 163.585 108.681 163.193 109.036C162.801 109.381 162.568 109.853 162.493 110.45H166.763ZM171.456 104.64V115H169.86V104.64H171.456ZM180.397 107.286V115H178.801V114.09C178.549 114.407 178.218 114.659 177.807 114.846C177.406 115.023 176.977 115.112 176.519 115.112C175.913 115.112 175.367 114.986 174.881 114.734C174.405 114.482 174.027 114.109 173.747 113.614C173.477 113.119 173.341 112.522 173.341 111.822V107.286H174.923V111.584C174.923 112.275 175.096 112.807 175.441 113.18C175.787 113.544 176.258 113.726 176.855 113.726C177.453 113.726 177.924 113.544 178.269 113.18C178.624 112.807 178.801 112.275 178.801 111.584V107.286H180.397ZM183.959 108.406C184.192 108.014 184.5 107.711 184.883 107.496C185.275 107.272 185.737 107.16 186.269 107.16V108.812H185.863C185.238 108.812 184.762 108.971 184.435 109.288C184.118 109.605 183.959 110.156 183.959 110.94V115H182.363V107.286H183.959V108.406ZM194.582 107.286V115H192.986V114.09C192.734 114.407 192.403 114.659 191.992 114.846C191.591 115.023 191.161 115.112 190.704 115.112C190.097 115.112 189.551 114.986 189.066 114.734C188.59 114.482 188.212 114.109 187.932 113.614C187.661 113.119 187.526 112.522 187.526 111.822V107.286H189.108V111.584C189.108 112.275 189.281 112.807 189.626 113.18C189.971 113.544 190.443 113.726 191.04 113.726C191.637 113.726 192.109 113.544 192.454 113.18C192.809 112.807 192.986 112.275 192.986 111.584V107.286H194.582ZM200.538 107.16C201.126 107.16 201.649 107.286 202.106 107.538C202.573 107.79 202.937 108.163 203.198 108.658C203.469 109.153 203.604 109.75 203.604 110.45V115H202.022V110.688C202.022 109.997 201.849 109.47 201.504 109.106C201.159 108.733 200.687 108.546 200.09 108.546C199.493 108.546 199.017 108.733 198.662 109.106C198.317 109.47 198.144 109.997 198.144 110.688V115H196.548V104.64H198.144V108.182C198.415 107.855 198.755 107.603 199.166 107.426C199.586 107.249 200.043 107.16 200.538 107.16ZM210.592 105.27V115H208.996V105.27H210.592ZM216.44 107.16C217.046 107.16 217.588 107.286 218.064 107.538C218.549 107.79 218.927 108.163 219.198 108.658C219.468 109.153 219.604 109.75 219.604 110.45V115H218.022V110.688C218.022 109.997 217.849 109.47 217.504 109.106C217.158 108.733 216.687 108.546 216.09 108.546C215.492 108.546 215.016 108.733 214.662 109.106C214.316 109.47 214.144 109.997 214.144 110.688V115H212.548V107.286H214.144V108.168C214.405 107.851 214.736 107.603 215.138 107.426C215.548 107.249 215.982 107.16 216.44 107.16ZM220.968 111.108C220.968 110.333 221.126 109.647 221.444 109.05C221.77 108.453 222.209 107.991 222.76 107.664C223.32 107.328 223.94 107.16 224.622 107.16C225.126 107.16 225.62 107.272 226.106 107.496C226.6 107.711 226.992 108 227.282 108.364V104.64H228.892V115H227.282V113.838C227.02 114.211 226.656 114.519 226.19 114.762C225.732 115.005 225.205 115.126 224.608 115.126C223.936 115.126 223.32 114.958 222.76 114.622C222.209 114.277 221.77 113.801 221.444 113.194C221.126 112.578 220.968 111.883 220.968 111.108ZM227.282 111.136C227.282 110.604 227.17 110.142 226.946 109.75C226.731 109.358 226.446 109.059 226.092 108.854C225.737 108.649 225.354 108.546 224.944 108.546C224.533 108.546 224.15 108.649 223.796 108.854C223.441 109.05 223.152 109.344 222.928 109.736C222.713 110.119 222.606 110.576 222.606 111.108C222.606 111.64 222.713 112.107 222.928 112.508C223.152 112.909 223.441 113.217 223.796 113.432C224.16 113.637 224.542 113.74 224.944 113.74C225.354 113.74 225.737 113.637 226.092 113.432C226.446 113.227 226.731 112.928 226.946 112.536C227.17 112.135 227.282 111.668 227.282 111.136ZM234.194 115.126C233.466 115.126 232.808 114.963 232.22 114.636C231.632 114.3 231.17 113.833 230.834 113.236C230.498 112.629 230.33 111.929 230.33 111.136C230.33 110.352 230.503 109.657 230.848 109.05C231.193 108.443 231.665 107.977 232.262 107.65C232.859 107.323 233.527 107.16 234.264 107.16C235.001 107.16 235.669 107.323 236.266 107.65C236.863 107.977 237.335 108.443 237.68 109.05C238.025 109.657 238.198 110.352 238.198 111.136C238.198 111.92 238.021 112.615 237.666 113.222C237.311 113.829 236.826 114.3 236.21 114.636C235.603 114.963 234.931 115.126 234.194 115.126ZM234.194 113.74C234.605 113.74 234.987 113.642 235.342 113.446C235.706 113.25 236 112.956 236.224 112.564C236.448 112.172 236.56 111.696 236.56 111.136C236.56 110.576 236.453 110.105 236.238 109.722C236.023 109.33 235.739 109.036 235.384 108.84C235.029 108.644 234.647 108.546 234.236 108.546C233.825 108.546 233.443 108.644 233.088 108.84C232.743 109.036 232.467 109.33 232.262 109.722C232.057 110.105 231.954 110.576 231.954 111.136C231.954 111.967 232.164 112.611 232.584 113.068C233.013 113.516 233.55 113.74 234.194 113.74ZM243.528 107.16C244.134 107.16 244.676 107.286 245.152 107.538C245.637 107.79 246.015 108.163 246.286 108.658C246.556 109.153 246.692 109.75 246.692 110.45V115H245.11V110.688C245.11 109.997 244.937 109.47 244.592 109.106C244.246 108.733 243.775 108.546 243.178 108.546C242.58 108.546 242.104 108.733 241.75 109.106C241.404 109.47 241.232 109.997 241.232 110.688V115H239.636V107.286H241.232V108.168C241.493 107.851 241.824 107.603 242.226 107.426C242.636 107.249 243.07 107.16 243.528 107.16ZM255.657 110.954C255.657 111.243 255.639 111.505 255.601 111.738H249.707C249.754 112.354 249.983 112.849 250.393 113.222C250.804 113.595 251.308 113.782 251.905 113.782C252.764 113.782 253.371 113.423 253.725 112.704H255.447C255.214 113.413 254.789 113.997 254.173 114.454C253.567 114.902 252.811 115.126 251.905 115.126C251.168 115.126 250.505 114.963 249.917 114.636C249.339 114.3 248.881 113.833 248.545 113.236C248.219 112.629 248.055 111.929 248.055 111.136C248.055 110.343 248.214 109.647 248.531 109.05C248.858 108.443 249.311 107.977 249.889 107.65C250.477 107.323 251.149 107.16 251.905 107.16C252.633 107.16 253.282 107.319 253.851 107.636C254.421 107.953 254.864 108.401 255.181 108.98C255.499 109.549 255.657 110.207 255.657 110.954ZM253.991 110.45C253.982 109.862 253.772 109.391 253.361 109.036C252.951 108.681 252.442 108.504 251.835 108.504C251.285 108.504 250.813 108.681 250.421 109.036C250.029 109.381 249.796 109.853 249.721 110.45H253.991ZM259.888 115.126C259.281 115.126 258.735 115.019 258.25 114.804C257.774 114.58 257.396 114.281 257.116 113.908C256.836 113.525 256.687 113.101 256.668 112.634H258.32C258.348 112.961 258.502 113.236 258.782 113.46C259.071 113.675 259.431 113.782 259.86 113.782C260.308 113.782 260.653 113.698 260.896 113.53C261.148 113.353 261.274 113.129 261.274 112.858C261.274 112.569 261.134 112.354 260.854 112.214C260.583 112.074 260.149 111.92 259.552 111.752C258.973 111.593 258.502 111.439 258.138 111.29C257.774 111.141 257.457 110.912 257.186 110.604C256.925 110.296 256.794 109.89 256.794 109.386C256.794 108.975 256.915 108.602 257.158 108.266C257.401 107.921 257.746 107.65 258.194 107.454C258.651 107.258 259.174 107.16 259.762 107.16C260.639 107.16 261.344 107.384 261.876 107.832C262.417 108.271 262.707 108.873 262.744 109.638H261.148C261.12 109.293 260.98 109.017 260.728 108.812C260.476 108.607 260.135 108.504 259.706 108.504C259.286 108.504 258.964 108.583 258.74 108.742C258.516 108.901 258.404 109.111 258.404 109.372C258.404 109.577 258.479 109.75 258.628 109.89C258.777 110.03 258.959 110.142 259.174 110.226C259.389 110.301 259.706 110.399 260.126 110.52C260.686 110.669 261.143 110.823 261.498 110.982C261.862 111.131 262.175 111.355 262.436 111.654C262.697 111.953 262.833 112.349 262.842 112.844C262.842 113.283 262.721 113.675 262.478 114.02C262.235 114.365 261.89 114.636 261.442 114.832C261.003 115.028 260.485 115.126 259.888 115.126ZM265.239 106.264C264.949 106.264 264.707 106.166 264.511 105.97C264.315 105.774 264.217 105.531 264.217 105.242C264.217 104.953 264.315 104.71 264.511 104.514C264.707 104.318 264.949 104.22 265.239 104.22C265.519 104.22 265.757 104.318 265.953 104.514C266.149 104.71 266.247 104.953 266.247 105.242C266.247 105.531 266.149 105.774 265.953 105.97C265.757 106.166 265.519 106.264 265.239 106.264ZM266.023 107.286V115H264.427V107.286H266.023ZM267.446 111.108C267.446 110.333 267.605 109.647 267.922 109.05C268.249 108.453 268.687 107.991 269.238 107.664C269.798 107.328 270.414 107.16 271.086 107.16C271.693 107.16 272.22 107.281 272.668 107.524C273.125 107.757 273.489 108.051 273.76 108.406V107.286H275.37V115H273.76V113.852C273.489 114.216 273.121 114.519 272.654 114.762C272.187 115.005 271.655 115.126 271.058 115.126C270.395 115.126 269.789 114.958 269.238 114.622C268.687 114.277 268.249 113.801 267.922 113.194C267.605 112.578 267.446 111.883 267.446 111.108ZM273.76 111.136C273.76 110.604 273.648 110.142 273.424 109.75C273.209 109.358 272.925 109.059 272.57 108.854C272.215 108.649 271.833 108.546 271.422 108.546C271.011 108.546 270.629 108.649 270.274 108.854C269.919 109.05 269.63 109.344 269.406 109.736C269.191 110.119 269.084 110.576 269.084 111.108C269.084 111.64 269.191 112.107 269.406 112.508C269.63 112.909 269.919 113.217 270.274 113.432C270.638 113.637 271.021 113.74 271.422 113.74C271.833 113.74 272.215 113.637 272.57 113.432C272.925 113.227 273.209 112.928 273.424 112.536C273.648 112.135 273.76 111.668 273.76 111.136Z" fill="#1F1F1F" fill-opacity="0.7"/>
</g>
<defs>
<filter id="filter0_d_281_119" x="0" y="0" width="405.416" height="232" filterUnits="userSpaceOnUse" color-interpolation-filters="sRGB">
<feFlood flood-opacity="0" result="BackgroundImageFix"/>
<feColorMatrix in="SourceAlpha" type="matrix" values="0 0 0 0 0 0 0 0 0 0 0 0 0 0 0 0 0 0 127 0" result="hardAlpha"/>
<feOffset dy="20"/>
<feGaussianBlur stdDeviation="40"/>
<feComposite in2="hardAlpha" operator="out"/>
<feColorMatrix type="matrix" values="0 0 0 0 0 0 0 0 0 0 0 0 0 0 0 0 0 0 0.08 0"/>
<feBlend mode="normal" in2="BackgroundImageFix" result="effect1_dropShadow_281_119"/>
<feBlend mode="normal" in="SourceGraphic" in2="effect1_dropShadow_281_119" result="shape"/>
</filter>
</defs>
</svg>
