<svg width="394" height="232" viewBox="0 0 394 232" fill="none" xmlns="http://www.w3.org/2000/svg">
<g filter="url(#filter0_d_281_110)">
<rect x="80" y="60" width="233.416" height="72" rx="36" fill="white"/>
<rect x="80.5" y="60.5" width="232.416" height="71" rx="35.5" stroke="#F5F5F5"/>
<rect x="92" y="72" width="48" height="48" rx="24" fill="#EF579B"/>
<path d="M106 87.993C106.002 87.7304 106.107 87.479 106.293 87.2932C106.478 87.1074 106.729 87.0021 106.992 87H125.008C125.556 87 126 87.445 126 87.993V104.007C125.998 104.27 125.893 104.521 125.707 104.707C125.522 104.893 125.271 104.998 125.008 105H106.992C106.729 105 106.476 104.895 106.29 104.709C106.104 104.523 106 104.27 106 104.007V87.993ZM116 89V103H124V89H116ZM117 91H123V93H117V91ZM117 94H123V96H117V94Z" fill="white"/>
<path d="M162.404 81.324C162.404 81.996 162.242 82.626 161.918 83.214C161.606 83.802 161.108 84.276 160.424 84.636C159.752 84.996 158.9 85.176 157.868 85.176H155.762V90H153.242V77.436H157.868C158.84 77.436 159.668 77.604 160.352 77.94C161.036 78.276 161.546 78.738 161.882 79.326C162.23 79.914 162.404 80.58 162.404 81.324ZM157.76 83.142C158.456 83.142 158.972 82.986 159.308 82.674C159.644 82.35 159.812 81.9 159.812 81.324C159.812 80.1 159.128 79.488 157.76 79.488H155.762V83.142H157.76ZM173.283 84.798C173.283 85.158 173.259 85.482 173.211 85.77H165.921C165.981 86.49 166.233 87.054 166.677 87.462C167.121 87.87 167.667 88.074 168.315 88.074C169.251 88.074 169.917 87.672 170.313 86.868H173.031C172.743 87.828 172.191 88.62 171.375 89.244C170.559 89.856 169.557 90.162 168.369 90.162C167.409 90.162 166.545 89.952 165.777 89.532C165.021 89.1 164.427 88.494 163.995 87.714C163.575 86.934 163.365 86.034 163.365 85.014C163.365 83.982 163.575 83.076 163.995 82.296C164.415 81.516 165.003 80.916 165.759 80.496C166.515 80.076 167.385 79.866 168.369 79.866C169.317 79.866 170.163 80.07 170.907 80.478C171.663 80.886 172.245 81.468 172.653 82.224C173.073 82.968 173.283 83.826 173.283 84.798ZM170.673 84.078C170.661 83.43 170.427 82.914 169.971 82.53C169.515 82.134 168.957 81.936 168.297 81.936C167.673 81.936 167.145 82.128 166.713 82.512C166.293 82.884 166.035 83.406 165.939 84.078H170.673ZM187.327 79.884C188.551 79.884 189.535 80.262 190.279 81.018C191.035 81.762 191.413 82.806 191.413 84.15V90H188.893V84.492C188.893 83.712 188.695 83.118 188.299 82.71C187.903 82.29 187.363 82.08 186.679 82.08C185.995 82.08 185.449 82.29 185.041 82.71C184.645 83.118 184.447 83.712 184.447 84.492V90H181.927V84.492C181.927 83.712 181.729 83.118 181.333 82.71C180.937 82.29 180.397 82.08 179.713 82.08C179.017 82.08 178.465 82.29 178.057 82.71C177.661 83.118 177.463 83.712 177.463 84.492V90H174.943V80.028H177.463V81.234C177.787 80.814 178.201 80.484 178.705 80.244C179.221 80.004 179.785 79.884 180.397 79.884C181.177 79.884 181.873 80.052 182.485 80.388C183.097 80.712 183.571 81.18 183.907 81.792C184.231 81.216 184.699 80.754 185.311 80.406C185.935 80.058 186.607 79.884 187.327 79.884ZM196.144 81.486C196.468 81.006 196.912 80.616 197.476 80.316C198.052 80.016 198.706 79.866 199.438 79.866C200.29 79.866 201.058 80.076 201.742 80.496C202.438 80.916 202.984 81.516 203.38 82.296C203.788 83.064 203.992 83.958 203.992 84.978C203.992 85.998 203.788 86.904 203.38 87.696C202.984 88.476 202.438 89.082 201.742 89.514C201.058 89.946 200.29 90.162 199.438 90.162C198.694 90.162 198.04 90.018 197.476 89.73C196.924 89.43 196.48 89.046 196.144 88.578V90H193.624V76.68H196.144V81.486ZM201.418 84.978C201.418 84.378 201.292 83.862 201.04 83.43C200.8 82.986 200.476 82.65 200.068 82.422C199.672 82.194 199.24 82.08 198.772 82.08C198.316 82.08 197.884 82.2 197.476 82.44C197.08 82.668 196.756 83.004 196.504 83.448C196.264 83.892 196.144 84.414 196.144 85.014C196.144 85.614 196.264 86.136 196.504 86.58C196.756 87.024 197.08 87.366 197.476 87.606C197.884 87.834 198.316 87.948 198.772 87.948C199.24 87.948 199.672 87.828 200.068 87.588C200.476 87.348 200.8 87.006 201.04 86.562C201.292 86.118 201.418 85.59 201.418 84.978ZM204.995 84.978C204.995 83.97 205.193 83.076 205.589 82.296C205.997 81.516 206.543 80.916 207.227 80.496C207.923 80.076 208.697 79.866 209.549 79.866C210.293 79.866 210.941 80.016 211.493 80.316C212.057 80.616 212.507 80.994 212.843 81.45V80.028H215.381V90H212.843V88.542C212.519 89.01 212.069 89.4 211.493 89.712C210.929 90.012 210.275 90.162 209.531 90.162C208.691 90.162 207.923 89.946 207.227 89.514C206.543 89.082 205.997 88.476 205.589 87.696C205.193 86.904 204.995 85.998 204.995 84.978ZM212.843 85.014C212.843 84.402 212.723 83.88 212.483 83.448C212.243 83.004 211.919 82.668 211.511 82.44C211.103 82.2 210.665 82.08 210.197 82.08C209.729 82.08 209.297 82.194 208.901 82.422C208.505 82.65 208.181 82.986 207.929 83.43C207.689 83.862 207.569 84.378 207.569 84.978C207.569 85.578 207.689 86.106 207.929 86.562C208.181 87.006 208.505 87.348 208.901 87.588C209.309 87.828 209.741 87.948 210.197 87.948C210.665 87.948 211.103 87.834 211.511 87.606C211.919 87.366 212.243 87.03 212.483 86.598C212.723 86.154 212.843 85.626 212.843 85.014ZM223.278 79.884C224.034 79.884 224.706 80.052 225.294 80.388C225.882 80.712 226.338 81.198 226.662 81.846C226.998 82.482 227.166 83.25 227.166 84.15V90H224.646V84.492C224.646 83.7 224.448 83.094 224.052 82.674C223.656 82.242 223.116 82.026 222.432 82.026C221.736 82.026 221.184 82.242 220.776 82.674C220.38 83.094 220.182 83.7 220.182 84.492V90H217.662V76.68H220.182V81.27C220.506 80.838 220.938 80.502 221.478 80.262C222.018 80.01 222.618 79.884 223.278 79.884ZM228.735 84.978C228.735 83.97 228.933 83.076 229.329 82.296C229.737 81.516 230.283 80.916 230.967 80.496C231.663 80.076 232.437 79.866 233.289 79.866C234.033 79.866 234.681 80.016 235.233 80.316C235.797 80.616 236.247 80.994 236.583 81.45V80.028H239.121V90H236.583V88.542C236.259 89.01 235.809 89.4 235.233 89.712C234.669 90.012 234.015 90.162 233.271 90.162C232.431 90.162 231.663 89.946 230.967 89.514C230.283 89.082 229.737 88.476 229.329 87.696C228.933 86.904 228.735 85.998 228.735 84.978ZM236.583 85.014C236.583 84.402 236.463 83.88 236.223 83.448C235.983 83.004 235.659 82.668 235.251 82.44C234.843 82.2 234.405 82.08 233.937 82.08C233.469 82.08 233.037 82.194 232.641 82.422C232.245 82.65 231.921 82.986 231.669 83.43C231.429 83.862 231.309 84.378 231.309 84.978C231.309 85.578 231.429 86.106 231.669 86.562C231.921 87.006 232.245 87.348 232.641 87.588C233.049 87.828 233.481 87.948 233.937 87.948C234.405 87.948 234.843 87.834 235.251 87.606C235.659 87.366 235.983 87.03 236.223 86.598C236.463 86.154 236.583 85.626 236.583 85.014ZM245.218 90.162C244.402 90.162 243.67 90.018 243.022 89.73C242.374 89.43 241.858 89.028 241.474 88.524C241.102 88.02 240.898 87.462 240.862 86.85H243.4C243.448 87.234 243.634 87.552 243.958 87.804C244.294 88.056 244.708 88.182 245.2 88.182C245.68 88.182 246.052 88.086 246.316 87.894C246.592 87.702 246.73 87.456 246.73 87.156C246.73 86.832 246.562 86.592 246.226 86.436C245.902 86.268 245.38 86.088 244.66 85.896C243.916 85.716 243.304 85.53 242.824 85.338C242.356 85.146 241.948 84.852 241.6 84.456C241.264 84.06 241.096 83.526 241.096 82.854C241.096 82.302 241.252 81.798 241.564 81.342C241.888 80.886 242.344 80.526 242.932 80.262C243.532 79.998 244.234 79.866 245.038 79.866C246.226 79.866 247.174 80.166 247.882 80.766C248.59 81.354 248.98 82.152 249.052 83.16H246.64C246.604 82.764 246.436 82.452 246.136 82.224C245.848 81.984 245.458 81.864 244.966 81.864C244.51 81.864 244.156 81.948 243.904 82.116C243.664 82.284 243.544 82.518 243.544 82.818C243.544 83.154 243.712 83.412 244.048 83.592C244.384 83.76 244.906 83.934 245.614 84.114C246.334 84.294 246.928 84.48 247.396 84.672C247.864 84.864 248.266 85.164 248.602 85.572C248.95 85.968 249.13 86.496 249.142 87.156C249.142 87.732 248.98 88.248 248.656 88.704C248.344 89.16 247.888 89.52 247.288 89.784C246.7 90.036 246.01 90.162 245.218 90.162ZM250.383 84.978C250.383 83.97 250.581 83.076 250.977 82.296C251.385 81.516 251.931 80.916 252.615 80.496C253.311 80.076 254.085 79.866 254.937 79.866C255.681 79.866 256.329 80.016 256.881 80.316C257.445 80.616 257.895 80.994 258.231 81.45V80.028H260.769V90H258.231V88.542C257.907 89.01 257.457 89.4 256.881 89.712C256.317 90.012 255.663 90.162 254.919 90.162C254.079 90.162 253.311 89.946 252.615 89.514C251.931 89.082 251.385 88.476 250.977 87.696C250.581 86.904 250.383 85.998 250.383 84.978ZM258.231 85.014C258.231 84.402 258.111 83.88 257.871 83.448C257.631 83.004 257.307 82.668 256.899 82.44C256.491 82.2 256.053 82.08 255.585 82.08C255.117 82.08 254.685 82.194 254.289 82.422C253.893 82.65 253.569 82.986 253.317 83.43C253.077 83.862 252.957 84.378 252.957 84.978C252.957 85.578 253.077 86.106 253.317 86.562C253.569 87.006 253.893 87.348 254.289 87.588C254.697 87.828 255.129 87.948 255.585 87.948C256.053 87.948 256.491 87.834 256.899 87.606C257.307 87.366 257.631 87.03 257.871 86.598C258.111 86.154 258.231 85.626 258.231 85.014ZM268.576 79.884C269.764 79.884 270.724 80.262 271.456 81.018C272.188 81.762 272.554 82.806 272.554 84.15V90H270.034V84.492C270.034 83.7 269.836 83.094 269.44 82.674C269.044 82.242 268.504 82.026 267.82 82.026C267.124 82.026 266.572 82.242 266.164 82.674C265.768 83.094 265.57 83.7 265.57 84.492V90H263.05V80.028H265.57V81.27C265.906 80.838 266.332 80.502 266.848 80.262C267.376 80.01 267.952 79.884 268.576 79.884Z" fill="#1F1F1F"/>
<path d="M154.646 113.712H157.936V115H153.05V105.27H154.646V113.712ZM166.201 110.954C166.201 111.243 166.182 111.505 166.145 111.738H160.251C160.297 112.354 160.526 112.849 160.937 113.222C161.347 113.595 161.851 113.782 162.449 113.782C163.307 113.782 163.914 113.423 164.269 112.704H165.991C165.757 113.413 165.333 113.997 164.717 114.454C164.11 114.902 163.354 115.126 162.449 115.126C161.711 115.126 161.049 114.963 160.461 114.636C159.882 114.3 159.425 113.833 159.089 113.236C158.762 112.629 158.599 111.929 158.599 111.136C158.599 110.343 158.757 109.647 159.075 109.05C159.401 108.443 159.854 107.977 160.433 107.65C161.021 107.323 161.693 107.16 162.449 107.16C163.177 107.16 163.825 107.319 164.395 107.636C164.964 107.953 165.407 108.401 165.725 108.98C166.042 109.549 166.201 110.207 166.201 110.954ZM164.535 110.45C164.525 109.862 164.315 109.391 163.905 109.036C163.494 108.681 162.985 108.504 162.379 108.504C161.828 108.504 161.357 108.681 160.965 109.036C160.573 109.381 160.339 109.853 160.265 110.45H164.535ZM171.523 107.16C172.13 107.16 172.671 107.286 173.147 107.538C173.633 107.79 174.011 108.163 174.281 108.658C174.552 109.153 174.687 109.75 174.687 110.45V115H173.105V110.688C173.105 109.997 172.933 109.47 172.587 109.106C172.242 108.733 171.771 108.546 171.173 108.546C170.576 108.546 170.1 108.733 169.745 109.106C169.4 109.47 169.227 109.997 169.227 110.688V115H167.631V107.286H169.227V108.168C169.489 107.851 169.82 107.603 170.221 107.426C170.632 107.249 171.066 107.16 171.523 107.16ZM179.635 111.15L183.191 115H181.035L178.179 111.682V115H176.583V104.64H178.179V110.66L180.979 107.286H183.191L179.635 111.15ZM183.663 111.108C183.663 110.333 183.822 109.647 184.139 109.05C184.466 108.453 184.904 107.991 185.455 107.664C186.015 107.328 186.631 107.16 187.303 107.16C187.91 107.16 188.437 107.281 188.885 107.524C189.342 107.757 189.706 108.051 189.977 108.406V107.286H191.587V115H189.977V113.852C189.706 114.216 189.338 114.519 188.871 114.762C188.404 115.005 187.872 115.126 187.275 115.126C186.612 115.126 186.006 114.958 185.455 114.622C184.904 114.277 184.466 113.801 184.139 113.194C183.822 112.578 183.663 111.883 183.663 111.108ZM189.977 111.136C189.977 110.604 189.865 110.142 189.641 109.75C189.426 109.358 189.142 109.059 188.787 108.854C188.432 108.649 188.05 108.546 187.639 108.546C187.228 108.546 186.846 108.649 186.491 108.854C186.136 109.05 185.847 109.344 185.623 109.736C185.408 110.119 185.301 110.576 185.301 111.108C185.301 111.64 185.408 112.107 185.623 112.508C185.847 112.909 186.136 113.217 186.491 113.432C186.855 113.637 187.238 113.74 187.639 113.74C188.05 113.74 188.432 113.637 188.787 113.432C189.142 113.227 189.426 112.928 189.641 112.536C189.865 112.135 189.977 111.668 189.977 111.136ZM195.139 108.42C195.41 108.065 195.779 107.767 196.245 107.524C196.712 107.281 197.239 107.16 197.827 107.16C198.499 107.16 199.111 107.328 199.661 107.664C200.221 107.991 200.66 108.453 200.977 109.05C201.295 109.647 201.453 110.333 201.453 111.108C201.453 111.883 201.295 112.578 200.977 113.194C200.66 113.801 200.221 114.277 199.661 114.622C199.111 114.958 198.499 115.126 197.827 115.126C197.239 115.126 196.717 115.009 196.259 114.776C195.802 114.533 195.429 114.235 195.139 113.88V118.668H193.543V107.286H195.139V108.42ZM199.829 111.108C199.829 110.576 199.717 110.119 199.493 109.736C199.279 109.344 198.989 109.05 198.625 108.854C198.271 108.649 197.888 108.546 197.477 108.546C197.076 108.546 196.693 108.649 196.329 108.854C195.975 109.059 195.685 109.358 195.461 109.75C195.247 110.142 195.139 110.604 195.139 111.136C195.139 111.668 195.247 112.135 195.461 112.536C195.685 112.928 195.975 113.227 196.329 113.432C196.693 113.637 197.076 113.74 197.477 113.74C197.888 113.74 198.271 113.637 198.625 113.432C198.989 113.217 199.279 112.909 199.493 112.508C199.717 112.107 199.829 111.64 199.829 111.108ZM205.856 111.108C205.856 110.333 206.015 109.647 206.332 109.05C206.659 108.453 207.098 107.991 207.648 107.664C208.208 107.328 208.829 107.16 209.51 107.16C210.014 107.16 210.509 107.272 210.994 107.496C211.489 107.711 211.881 108 212.17 108.364V104.64H213.78V115H212.17V113.838C211.909 114.211 211.545 114.519 211.078 114.762C210.621 115.005 210.094 115.126 209.496 115.126C208.824 115.126 208.208 114.958 207.648 114.622C207.098 114.277 206.659 113.801 206.332 113.194C206.015 112.578 205.856 111.883 205.856 111.108ZM212.17 111.136C212.17 110.604 212.058 110.142 211.834 109.75C211.62 109.358 211.335 109.059 210.98 108.854C210.626 108.649 210.243 108.546 209.832 108.546C209.422 108.546 209.039 108.649 208.684 108.854C208.33 109.05 208.04 109.344 207.816 109.736C207.602 110.119 207.494 110.576 207.494 111.108C207.494 111.64 207.602 112.107 207.816 112.508C208.04 112.909 208.33 113.217 208.684 113.432C209.048 113.637 209.431 113.74 209.832 113.74C210.243 113.74 210.626 113.637 210.98 113.432C211.335 113.227 211.62 112.928 211.834 112.536C212.058 112.135 212.17 111.668 212.17 111.136ZM215.205 111.108C215.205 110.333 215.363 109.647 215.681 109.05C216.007 108.453 216.446 107.991 216.997 107.664C217.557 107.328 218.173 107.16 218.845 107.16C219.451 107.16 219.979 107.281 220.427 107.524C220.884 107.757 221.248 108.051 221.519 108.406V107.286H223.129V115H221.519V113.852C221.248 114.216 220.879 114.519 220.413 114.762C219.946 115.005 219.414 115.126 218.817 115.126C218.154 115.126 217.547 114.958 216.997 114.622C216.446 114.277 216.007 113.801 215.681 113.194C215.363 112.578 215.205 111.883 215.205 111.108ZM221.519 111.136C221.519 110.604 221.407 110.142 221.183 109.75C220.968 109.358 220.683 109.059 220.329 108.854C219.974 108.649 219.591 108.546 219.181 108.546C218.77 108.546 218.387 108.649 218.033 108.854C217.678 109.05 217.389 109.344 217.165 109.736C216.95 110.119 216.843 110.576 216.843 111.108C216.843 111.64 216.95 112.107 217.165 112.508C217.389 112.909 217.678 113.217 218.033 113.432C218.397 113.637 218.779 113.74 219.181 113.74C219.591 113.74 219.974 113.637 220.329 113.432C220.683 113.227 220.968 112.928 221.183 112.536C221.407 112.135 221.519 111.668 221.519 111.136ZM228.977 107.16C229.584 107.16 230.125 107.286 230.601 107.538C231.086 107.79 231.464 108.163 231.735 108.658C232.006 109.153 232.141 109.75 232.141 110.45V115H230.559V110.688C230.559 109.997 230.386 109.47 230.041 109.106C229.696 108.733 229.224 108.546 228.627 108.546C228.03 108.546 227.554 108.733 227.199 109.106C226.854 109.47 226.681 109.997 226.681 110.688V115H225.085V107.286H226.681V108.168C226.942 107.851 227.274 107.603 227.675 107.426C228.086 107.249 228.52 107.16 228.977 107.16ZM240.711 105.27C241.747 105.27 242.653 105.471 243.427 105.872C244.211 106.264 244.813 106.833 245.233 107.58C245.663 108.317 245.877 109.181 245.877 110.17C245.877 111.159 245.663 112.018 245.233 112.746C244.813 113.474 244.211 114.034 243.427 114.426C242.653 114.809 241.747 115 240.711 115H237.533V105.27H240.711ZM240.711 113.698C241.85 113.698 242.723 113.39 243.329 112.774C243.936 112.158 244.239 111.29 244.239 110.17C244.239 109.041 243.936 108.159 243.329 107.524C242.723 106.889 241.85 106.572 240.711 106.572H239.129V113.698H240.711ZM254.389 110.954C254.389 111.243 254.371 111.505 254.333 111.738H248.439C248.486 112.354 248.715 112.849 249.125 113.222C249.536 113.595 250.04 113.782 250.637 113.782C251.496 113.782 252.103 113.423 252.457 112.704H254.179C253.946 113.413 253.521 113.997 252.905 114.454C252.299 114.902 251.543 115.126 250.637 115.126C249.9 115.126 249.237 114.963 248.649 114.636C248.071 114.3 247.613 113.833 247.277 113.236C246.951 112.629 246.787 111.929 246.787 111.136C246.787 110.343 246.946 109.647 247.263 109.05C247.59 108.443 248.043 107.977 248.621 107.65C249.209 107.323 249.881 107.16 250.637 107.16C251.365 107.16 252.014 107.319 252.583 107.636C253.153 107.953 253.596 108.401 253.913 108.98C254.231 109.549 254.389 110.207 254.389 110.954ZM252.723 110.45C252.714 109.862 252.504 109.391 252.093 109.036C251.683 108.681 251.174 108.504 250.567 108.504C250.017 108.504 249.545 108.681 249.153 109.036C248.761 109.381 248.528 109.853 248.453 110.45H252.723ZM257.682 108.588V112.858C257.682 113.147 257.747 113.357 257.878 113.488C258.018 113.609 258.251 113.67 258.578 113.67H259.558V115H258.298C257.579 115 257.029 114.832 256.646 114.496C256.263 114.16 256.072 113.614 256.072 112.858V108.588H255.162V107.286H256.072V105.368H257.682V107.286H259.558V108.588H257.682ZM260.357 111.108C260.357 110.333 260.515 109.647 260.833 109.05C261.159 108.453 261.598 107.991 262.149 107.664C262.709 107.328 263.325 107.16 263.997 107.16C264.603 107.16 265.131 107.281 265.579 107.524C266.036 107.757 266.4 108.051 266.671 108.406V107.286H268.281V115H266.671V113.852C266.4 114.216 266.031 114.519 265.565 114.762C265.098 115.005 264.566 115.126 263.969 115.126C263.306 115.126 262.699 114.958 262.149 114.622C261.598 114.277 261.159 113.801 260.833 113.194C260.515 112.578 260.357 111.883 260.357 111.108ZM266.671 111.136C266.671 110.604 266.559 110.142 266.335 109.75C266.12 109.358 265.835 109.059 265.481 108.854C265.126 108.649 264.743 108.546 264.333 108.546C263.922 108.546 263.539 108.649 263.185 108.854C262.83 109.05 262.541 109.344 262.317 109.736C262.102 110.119 261.995 110.576 261.995 111.108C261.995 111.64 262.102 112.107 262.317 112.508C262.541 112.909 262.83 113.217 263.185 113.432C263.549 113.637 263.931 113.74 264.333 113.74C264.743 113.74 265.126 113.637 265.481 113.432C265.835 113.227 266.12 112.928 266.335 112.536C266.559 112.135 266.671 111.668 266.671 111.136ZM271.049 106.264C270.76 106.264 270.517 106.166 270.321 105.97C270.125 105.774 270.027 105.531 270.027 105.242C270.027 104.953 270.125 104.71 270.321 104.514C270.517 104.318 270.76 104.22 271.049 104.22C271.329 104.22 271.567 104.318 271.763 104.514C271.959 104.71 272.057 104.953 272.057 105.242C272.057 105.531 271.959 105.774 271.763 105.97C271.567 106.166 271.329 106.264 271.049 106.264ZM271.833 107.286V115H270.237V107.286H271.833ZM275.385 104.64V115H273.789V104.64H275.385Z" fill="#1F1F1F" fill-opacity="0.7"/>
</g>
<defs>
<filter id="filter0_d_281_110" x="0" y="0" width="393.416" height="232" filterUnits="userSpaceOnUse" color-interpolation-filters="sRGB">
<feFlood flood-opacity="0" result="BackgroundImageFix"/>
<feColorMatrix in="SourceAlpha" type="matrix" values="0 0 0 0 0 0 0 0 0 0 0 0 0 0 0 0 0 0 127 0" result="hardAlpha"/>
<feOffset dy="20"/>
<feGaussianBlur stdDeviation="40"/>
<feComposite in2="hardAlpha" operator="out"/>
<feColorMatrix type="matrix" values="0 0 0 0 0 0 0 0 0 0 0 0 0 0 0 0 0 0 0.08 0"/>
<feBlend mode="normal" in2="BackgroundImageFix" result="effect1_dropShadow_281_110"/>
<feBlend mode="normal" in="SourceGraphic" in2="effect1_dropShadow_281_110" result="shape"/>
</filter>
</defs>
</svg>
