<svg width="879" height="879" viewBox="0 0 879 879" fill="none" xmlns="http://www.w3.org/2000/svg">
<rect width="879" height="879" rx="439.5" fill="#2C27E1"/>
<path d="M238.752 243.808H402.876V658.39H238.752V243.808ZM453.517 356.682C453.517 311.736 464.906 281.535 487.684 266.078C509.242 251.638 549.815 244.419 609.404 244.419H640.216V302.076C640.216 348.038 628.522 380.782 605.133 400.306C581.338 419.83 540.358 429.592 482.193 429.592H453.517V356.682ZM453.517 461.319H482.193C539.545 461.319 580.525 472.708 605.133 495.486C628.522 517.247 640.216 551.618 640.216 598.597V659H609.404C551.035 659 510.462 650.255 487.684 632.765C464.906 615.071 453.517 583.344 453.517 537.585V461.319Z" fill="white"/>
</svg>
