<svg width="132" height="42" viewBox="0 0 132 42" fill="none" xmlns="http://www.w3.org/2000/svg">
<rect x="21" width="29.6985" height="29.6985" rx="6.86319" transform="rotate(45 21 0)" fill="#2C27E1"/>
<path d="M14.1239 14.4687H19.7581V28.7007H14.1239V14.4687ZM21.4965 18.3435C21.4965 16.8005 21.8874 15.7638 22.6694 15.2332C23.4094 14.7375 24.8023 14.4896 26.8479 14.4896H27.9056V16.4689C27.9056 18.0468 27.5041 19.1708 26.7013 19.841C25.8844 20.5113 24.4776 20.8464 22.4809 20.8464H21.4965V18.3435ZM21.4965 21.9355H22.4809C24.4497 21.9355 25.8565 22.3265 26.7013 23.1084C27.5041 23.8554 27.9056 25.0353 27.9056 26.6481V28.7216H26.8479C24.8442 28.7216 23.4513 28.4214 22.6694 27.821C21.8874 27.2136 21.4965 26.1245 21.4965 24.5536V21.9355Z" fill="white"/>
<path d="M63.016 29.5H57.976L53.536 22.804L51.76 24.868V29.5H47.44V12.34H51.76V19.66L57.904 12.34H62.536L56.08 19.852L63.016 29.5ZM74.7859 23.812V24.388H65.9539C65.9539 26.092 67.1539 27.028 68.5939 27.028C69.9619 27.028 70.5379 26.404 70.7779 25.78H74.6899C73.9939 28.276 71.9539 29.908 68.4979 29.908C64.5139 29.908 62.1139 27.196 62.1139 23.356C62.1139 19.756 64.3699 16.804 68.4979 16.804C72.6739 16.804 74.7859 19.276 74.7859 23.812ZM65.9779 22.012H70.9219C70.9219 20.428 69.9859 19.588 68.4979 19.588C67.0339 19.588 66.0739 20.428 65.9779 22.012ZM80.2398 29.5H76.3998V12.34H80.2398V29.5ZM85.8089 29.5H81.1769L87.7049 12.34H92.0489L98.6249 29.5H93.8969L92.7929 25.924H86.9129L85.8089 29.5ZM89.8409 16.3L87.8969 22.636H91.8329L89.8889 16.3H89.8409ZM106.454 29.884C101.966 29.884 98.5816 27.604 98.5816 23.668H102.95C102.95 25.66 104.462 26.404 106.406 26.404C108.014 26.404 108.83 25.756 108.83 24.868C108.83 23.404 107.126 23.02 104.75 22.3C101.774 21.388 99.1096 20.236 99.1096 17.164C99.1096 13.42 102.038 11.956 105.734 11.956C109.742 11.956 112.886 14.068 113.006 17.548H108.638C108.446 16.228 107.39 15.436 105.734 15.436C104.438 15.436 103.526 15.868 103.526 16.852C103.526 18.004 104.486 18.388 106.67 19.036C109.91 19.996 113.246 20.908 113.246 24.46C113.246 27.748 110.75 29.884 106.454 29.884ZM119.635 29.5H115.315V12.34H119.635L125.635 22.54H125.683V12.34H130.003V29.5H125.683L119.683 19.3H119.635V29.5Z" fill="#FFFFFF"/>
</svg>
