<svg width="42" height="42" viewBox="0 0 42 42" fill="none" xmlns="http://www.w3.org/2000/svg">
<rect width="42" height="42" rx="21" fill="#F2F2F2"/>
<path d="M19.99 18.4492C20.168 21.5392 17.992 25.8932 13.11 28.0002L12 26.0802C13.997 24.9572 15.507 23.1302 16.306 20.9302C13.42 20.6962 12.577 18.9172 12.577 17.4662C12.577 15.4992 14.087 13.9542 15.951 14.0012C17.726 13.9542 19.768 15.3122 19.99 18.4492ZM29.99 18.4492C30.168 21.5392 27.993 25.8932 23.11 28.0002L22 26.0802C23.998 24.9572 25.507 23.1302 26.306 20.9302C23.42 20.6962 22.577 18.9172 22.577 17.4662C22.577 15.4992 24.087 13.9542 25.951 14.0012C27.726 13.9542 29.768 15.3122 29.99 18.4492Z" fill="#0C0C0C"/>
<path d="M19.99 18.4492C20.168 21.5392 17.992 25.8932 13.11 28.0002L12 26.0802C13.997 24.9572 15.507 23.1302 16.306 20.9302C13.42 20.6962 12.577 18.9172 12.577 17.4662C12.577 15.4992 14.087 13.9542 15.951 14.0012C17.726 13.9542 19.768 15.3122 19.99 18.4492ZM29.99 18.4492C30.168 21.5392 27.993 25.8932 23.11 28.0002L22 26.0802C23.998 24.9572 25.507 23.1302 26.306 20.9302C23.42 20.6962 22.577 18.9172 22.577 17.4662C22.577 15.4992 24.087 13.9542 25.951 14.0012C27.726 13.9542 29.768 15.3122 29.99 18.4492Z" fill="#0C0C0C" stroke="black" stroke-width="1.5" stroke-miterlimit="10" stroke-linecap="round" stroke-linejoin="round"/>
</svg>
